<svg xmlns="http://www.w3.org/2000/svg" width="14" height="14" viewBox="0 0 14 14" fill="currentColor"><path d="M7 .875A6.132 6.132 0 0 1 13.125 7 6.133 6.133 0 0 1 7 13.125 6.132 6.132 0 0 1 .875 7 6.132 6.132 0 0 1 7 .875zM7 0a7 7 0 1 0 0 14A7 7 0 0 0 7 0zm0 1.75a5.25 5.25 0 1 0 0 10.5 5.25 5.25 0 0 0 0-10.5zm1.909 7.953c-.344.386-.842.613-1.492.682v.99h-.829v-.985c-1.084-.111-1.755-.742-2.014-1.89l1.282-.334c.119.722.512 1.082 1.179 1.082.312 0 .543-.077.69-.231a.783.783 0 0 0 .22-.56c0-.227-.073-.398-.22-.515-.147-.117-.475-.264-.981-.444-.456-.158-.812-.313-1.069-.469a1.764 1.764 0 0 1-.624-.648 1.922 1.922 0 0 1-.24-.972c0-.485.143-.921.429-1.31.285-.386.735-.623 1.348-.71v-.764h.829v.765c.926.11 1.526.635 1.799 1.572l-1.142.468c-.223-.642-.566-.964-1.033-.964-.234 0-.422.072-.563.216a.716.716 0 0 0-.213.522c0 .208.068.368.205.48.136.111.43.249.877.414.492.18.878.35 1.158.509.28.16.503.381.67.662.167.282.25.611.25.988 0 .578-.172 1.06-.516 1.446z"/></svg>