<svg xmlns="http://www.w3.org/2000/svg" width="14" height="14" viewBox="0 0 14 14" fill="currentColor"><path d="M13.693 7.64l-.24.218a.872.872 0 0 0 0 1.314l.248.21a.872.872 0 0 1 0 1.314l-.24.21a.874.874 0 0 0 .007 1.323l.109.093a.744.744 0 0 1 .008 1.128l-.024.015a.68.68 0 0 0-.07.07.747.747 0 0 1-1.135-.008l-.093-.108a.88.88 0 0 0-1.322 0l-.272.31a.798.798 0 0 1-1.197 0l-.28-.31a.87.87 0 0 0-1.314 0l-.28.31a.798.798 0 0 1-1.197 0l-.28-.31a.87.87 0 0 0-1.313 0l-.28.31a.798.798 0 0 1-1.197 0l-.272-.31a.88.88 0 0 0-1.322 0l-.101.116a.744.744 0 0 1-1.127.008v-.008a.85.85 0 0 0-.07-.07l-.024-.015a.735.735 0 0 1 .016-1.12l.117-.101a.87.87 0 0 0 0-1.315l-.241-.218a.872.872 0 0 1 0-1.314l.24-.21a.872.872 0 0 0 0-1.314L.3 7.64a.872.872 0 0 1 0-1.315l.249-.217a.872.872 0 0 0 0-1.315l-.25-.218a.872.872 0 0 1 0-1.314l.25-.21a.872.872 0 0 0 0-1.315l-.11-.093A.747.747 0 0 1 .424.508a.844.844 0 0 0 .07-.07L.51.422a.746.746 0 0 1 1.135.016l.093.108a.881.881 0 0 0 1.322 0l.217-.248a.873.873 0 0 1 1.314 0l.218.248a.873.873 0 0 0 1.314 0l.217-.248a.881.881 0 0 1 1.322 0l.21.248a.881.881 0 0 0 1.321 0L9.41.298a.873.873 0 0 1 1.314 0l.217.248a.881.881 0 0 0 1.322 0l.085-.108a.753.753 0 0 1 1.143-.016l.008.016a.841.841 0 0 0 .07.07.746.746 0 0 1-.008 1.136l-.109.092a.872.872 0 0 0 0 1.315l.241.218a.872.872 0 0 1 0 1.314l-.24.21a.872.872 0 0 0 0 1.315l.24.217a.872.872 0 0 1 0 1.315zm-2.65 5.032a.882.882 0 0 0 .878-.879V2.172a.874.874 0 0 0-.878-.871H2.957a.874.874 0 0 0-.879.87v9.622c0 .482.395.879.879.879h8.085zm.023-9.613v7.87a.882.882 0 0 1-.879.88H3.852a.875.875 0 0 1-.871-.88V3.06c0-.484.387-.871.87-.871h6.336c.484 0 .879.387.879.87zM7 6.325l2.41.677-3.965 3.904L7 7.858 4.528 7.01 7 3.059l2.41 1.524L7 6.325z" fill-rule="evenodd"/></svg>