<svg xmlns="http://www.w3.org/2000/svg" width="14" height="13.264" viewBox="0 0 14 13.264" fill="currentColor"><g clip-path="url(#clip-path-917_1174)"><path d="M1.224 4.598c0-.447.274-.81.616-.81h10.534v.173c0-.491-.29-1.674-1.387-1.674H6.372l-.556-.802C5.47 1.045 5.221.777 4.2.777H1.254C.23.777 0 1.095 0 2.271v8.444l1.224-6.117z" fill-rule="evenodd"/><path d="M13.417 4.582H2.565c-.322 0-.583.367-.583.822L.647 11.622c0 .455.262.822.583.822h10.852c.322 0 .583-.367.583-.822L14 5.404c0-.455-.261-.822-.583-.822zM10.12 8.005L9.024 9.21a.361.361 0 0 0-.07.238l.255 1.708c.017.119-.013.223-.085.28A.206.206 0 0 1 9 11.48a.265.265 0 0 1-.137-.043l-1.35-.81a.254.254 0 0 0-.222 0l-1.355.802c-.094.057-.189.054-.261-.003-.072-.059-.102-.16-.082-.282l.261-1.709a.355.355 0 0 0-.067-.237l-1.09-1.211a.296.296 0 0 1-.078-.283c.027-.096.105-.158.21-.175l1.51-.245a.293.293 0 0 0 .18-.147l.68-1.553c.047-.11.122-.173.214-.173.087 0 .165.062.212.173l.672 1.556c.028.064.117.138.18.146l1.511.255a.245.245 0 0 1 .21.177c.027.1 0 .2-.078.286z"/></g><defs><clipPath id="clip-path-917_1174"><path d="M0 13.263h14V0H0v13.263z"/></clipPath></defs></svg>