<svg xmlns="http://www.w3.org/2000/svg" width="18" height="17" viewBox="0 0 18 17" fill="currentColor"><path d="M9 0a1.588 1.588 0 0 1 .801.219 1.506 1.506 0 0 1 .426.382 1.43 1.43 0 0 1 .217.43 1.385 1.385 0 0 1 .053.475 1.411 1.411 0 0 1-.037.236l4.154 3.925h2.261a1.19 1.19 0 0 1 .677.213 1.193 1.193 0 0 1 .187.169.922.922 0 0 1 .117.16 1.034 1.034 0 0 1 .139.418L18 6.73v9.208a1.004 1.004 0 0 1-.19.59 1.09 1.09 0 0 1-.662.44 1.39 1.39 0 0 1-.163.028 1.02 1.02 0 0 1-.11.005H1.125a1.27 1.27 0 0 1-.327-.046 1.183 1.183 0 0 1-.387-.195.977.977 0 0 1-.156-.148 1.019 1.019 0 0 1-.207-.365A1.023 1.023 0 0 1 0 15.937V6.73a1.004 1.004 0 0 1 .19-.59 1.055 1.055 0 0 1 .31-.293 1.137 1.137 0 0 1 .515-.174 1.178 1.178 0 0 1 .11-.005h2.26L7.54 1.742a1.343 1.343 0 0 1-.036-.22L7.5 1.418a1.343 1.343 0 0 1 .295-.844 1.46 1.46 0 0 1 .631-.465A1.561 1.561 0 0 1 9 0zm7.5 7.083h-15v8.5h15v-8.5zM9.43 2.774a1.58 1.58 0 0 1-.86 0L5.507 5.668h6.985L9.43 2.775z"/></svg>