<svg xmlns="http://www.w3.org/2000/svg" width="18" height="17.986" viewBox="0 0 18 17.986" fill="currentColor"><path d="M17.618 13.018L13.526 8.93l3.732-3.73c.256-.252.404-.587.418-.939a1.263 1.263 0 0 0-.37-.955L14.693.693a1.273 1.273 0 0 0-.905-.369 1.41 1.41 0 0 0-.994.418l-1.554 1.553c-.002.002-.004.002-.004.004l-.004.004-2.17 2.167L4.974.382A1.306 1.306 0 0 0 4.049 0c-.35 0-.678.135-.925.382L.383 3.121A1.305 1.305 0 0 0 0 4.044c0 .35.135.679.382.926l4.092 4.086-3.1 3.099a.472.472 0 0 0-.14.304l-.738 4.49c0 .004 0 .006-.002.01v.006l-.002.016v.08c.002.03.006.057.014.085l.002.008.007.028a.461.461 0 0 0 .369.313H.9c.021.001.041.003.063.003.02 0 .038-.002.056-.004l.018-.002h.002l4.542-.744a.475.475 0 0 0 .28-.16l3.075-3.072 4.09 4.088c.25.247.578.382.926.382.35 0 .678-.135.925-.382l2.74-2.737a1.307 1.307 0 0 0 0-1.849zM13.462 1.41a.468.468 0 0 1 .325-.141.33.33 0 0 1 .236.093l2.616 2.614c.063.061.095.149.091.25a.462.462 0 0 1-.141.309l-1.224 1.222-3.127-3.125 1.224-1.222zM1.051 4.303a.361.361 0 0 1-.106-.257c0-.097.038-.189.106-.257l2.74-2.738a.361.361 0 0 1 .257-.106c.098 0 .19.038.257.106l4.088 4.09-3.252 3.248-4.09-4.086zm4.414 5.099l.012-.012L9.4 5.473a.576.576 0 0 0 .034-.038L11.569 3.3l3.127 3.125-2.171 2.169-.002.002-3.921 3.917-.002.002L5.5 15.612l-3.127-3.123 3.091-3.087zm-3.44 4.072l2.49 2.49-2.98.49.49-2.98zm14.924.723l-2.739 2.738a.36.36 0 0 1-.256.106.361.361 0 0 1-.257-.106l-4.092-4.088 1.38-1.377 1.872-1.873 4.092 4.086c.068.068.106.16.106.257s-.038.189-.106.257zm-9.824-2.685c.124 0 .241-.05.335-.14l3.82-3.819a.471.471 0 0 0 0-.669.468.468 0 0 0-.669 0l-3.82 3.82a.476.476 0 0 0-.14.334c0 .125.05.247.138.332.09.092.209.142.336.142z"/></svg>