<svg xmlns="http://www.w3.org/2000/svg" width="18" height="16.5" viewBox="0 0 18 16.5" fill="currentColor"><path d="M17.25 0H.75A.752.752 0 0 0 0 .75v15c0 .413.338.75.75.75h16.5c.413 0 .75-.337.75-.75v-15a.752.752 0 0 0-.75-.75zM15 1.538h.638L15 2.175v-.637zM13.5 15h-12V1.5h12V15zm1.5-4.95l1.5-1.5v.75L15 10.8v-.75zm0-2.137v-.75l1.5-1.5v.75l-1.5 1.5zm0-2.888v-.75l1.5-1.5v.75l-1.5 1.5zM15.788 15l.712-.712V15h-.712zM15 13.65v-.75l1.5-1.5v.75l-1.5 1.5z"/><path d="M6.487 12.713a.707.707 0 0 0 .3.075.74.74 0 0 0 .525-.225l3.75-3.75c.3-.3.3-.75 0-1.05l-3.75-3.75c-.225-.225-.525-.262-.825-.15-.3.113-.45.375-.45.675v7.5c-.038.263.15.563.45.675zm1.012-6.375l1.95 1.95-1.95 1.95v-3.9z"/></svg>