<svg xmlns="http://www.w3.org/2000/svg" width="18" height="18" viewBox="0 0 18 18" fill="currentColor"><path d="M16.075 7.024c.669.386 1.175.91 1.518 1.576.34.666.468 1.38.38 2.146a3.961 3.961 0 0 1-.134.678 3.813 3.813 0 0 1-2.528 2.565c-.282 1.196-.881 2.158-1.8 2.883-.917.724-1.994 1.101-3.226 1.128H8.357a.68.68 0 0 1-.19-.022.647.647 0 0 1-.273-.157.596.596 0 0 1-.15-.24.606.606 0 0 1-.03-.22.624.624 0 0 1 .306-.555.59.59 0 0 1 .21-.075.56.56 0 0 1 .127-.008h1.93a3.883 3.883 0 0 0 1.17-.184 3.818 3.818 0 0 0 .812-.364 4.003 4.003 0 0 0 .249-.16 3.775 3.775 0 0 0 1.407-1.846h-.423a.679.679 0 0 1-.22-.032.629.629 0 0 1-.323-.246.58.58 0 0 1-.086-.204.657.657 0 0 1-.014-.157V7.144a.624.624 0 0 1 .28-.539.619.619 0 0 1 .363-.1h.643c.214 0 .422.014.623.04-.188-1.489-.815-2.714-1.878-3.671-1.067-.958-2.362-1.45-3.89-1.477-1.528.026-2.825.519-3.89 1.477-1.065.957-1.692 2.182-1.878 3.671.2-.025.408-.04.623-.04h.643c.187 0 .342.06.463.18.12.12.18.273.18.46v6.385a.643.643 0 0 1-.055.278.671.671 0 0 1-.125.182.749.749 0 0 1-.1.08.603.603 0 0 1-.268.095.677.677 0 0 1-.095.004h-.643c-.898-.013-1.682-.276-2.352-.788-.669-.513-1.122-1.198-1.357-2.056-.234-.859-.187-1.676.142-2.455.328-.78.874-1.392 1.637-1.846.054-1.996.745-3.655 2.071-4.98C5.321.723 6.991.04 9 0c2.01.04 3.679.722 5.004 2.045 1.327 1.324 2.017 2.983 2.07 4.98zm-12.22.758c-.725.012-1.33.263-1.82.748-.488.485-.739 1.088-.753 1.806.013.719.265 1.32.754 1.806.488.485 1.096.736 1.819.748V7.782zm12.863 2.554c-.013-.718-.265-1.32-.754-1.806-.489-.485-1.096-.734-1.819-.748v5.108c.724-.013 1.33-.262 1.819-.748.489-.486.74-1.087.754-1.806z"/></svg>