<svg xmlns="http://www.w3.org/2000/svg" width="16" height="16" viewBox="0 0 16 16" fill="currentColor"><path d="M15.65 8.731l-.276.25a.996.996 0 0 0 0 1.501l.284.24a.997.997 0 0 1 0 1.502l-.275.24a.999.999 0 0 0 .009 1.511l.124.107a.85.85 0 0 1 .01 1.289l-.028.018a.764.764 0 0 0-.08.08.853.853 0 0 1-1.297-.009l-.106-.125a1.005 1.005 0 0 0-1.51 0l-.312.356a.911.911 0 0 1-1.368 0l-.32-.356a.995.995 0 0 0-1.501 0l-.32.356a.911.911 0 0 1-1.368 0l-.32-.356a.995.995 0 0 0-1.501 0l-.32.356a.911.911 0 0 1-1.369 0l-.31-.356a1.005 1.005 0 0 0-1.51 0l-.116.134a.85.85 0 0 1-1.289.008v-.008a.969.969 0 0 0-.08-.08l-.026-.018a.84.84 0 0 1 .018-1.28l.133-.116a.994.994 0 0 0 0-1.502l-.276-.249a.997.997 0 0 1 0-1.502l.276-.24a.996.996 0 0 0 0-1.502l-.284-.249a.997.997 0 0 1 0-1.502l.284-.249a.997.997 0 0 0 0-1.502L.342 5.23a.997.997 0 0 1 0-1.502l.284-.24a.997.997 0 0 0 0-1.502L.5 1.878A.854.854 0 0 1 .484.581.964.964 0 0 0 .564.5L.58.483A.853.853 0 0 1 1.88.5l.106.124c.4.454 1.111.454 1.51 0l.25-.284a.997.997 0 0 1 1.5 0l.25.284a.997.997 0 0 0 1.501 0l.249-.284a1.007 1.007 0 0 1 1.51 0l.24.284c.4.454 1.111.454 1.51 0l.25-.284a.997.997 0 0 1 1.5 0l.25.284c.398.454 1.11.454 1.51 0l.098-.124a.861.861 0 0 1 1.306-.018l.008.018c.027.03.052.055.08.08a.84.84 0 0 1 .293.64.853.853 0 0 1-.302.657l-.124.107a.996.996 0 0 0 0 1.502l.275.249a.997.997 0 0 1 0 1.502l-.275.24a.996.996 0 0 0 0 1.502l.275.25a.997.997 0 0 1 0 1.501zm-3.03 5.751c.552 0 1.004-.453 1.004-1.004V2.483a1 1 0 0 0-1.004-.996H3.38a1 1 0 0 0-1.004.996v10.995c0 .55.452 1.004 1.004 1.004h9.24zm.027-10.986v8.995c0 .551-.452 1.004-1.004 1.004H4.402a1 1 0 0 1-.995-1.004V3.496c0-.553.442-.995.995-.995h7.24a1 1 0 0 1 1.005.995zM8 7.229l2.754.773-4.53 4.462L7.999 8.98l-2.825-.969L8 3.496l2.754 1.742L8 7.23z" fill-rule="evenodd" /></svg>