<svg xmlns="http://www.w3.org/2000/svg" width="16" height="16" viewBox="0 0 16 16" fill="currentColor"><path d="M8 1c3.86 0 7 3.14 7 7s-3.14 7-7 7-7-3.14-7-7 3.14-7 7-7zm0-1a8 8 0 1 0 0 16A8 8 0 0 0 8 0zm0 2a6 6 0 1 0 0 12A6 6 0 0 0 8 2zm2.182 9.089c-.394.441-.962.701-1.705.78V13h-.948v-1.126c-1.239-.127-2.006-.848-2.302-2.16l1.465-.382c.136.825.585 1.237 1.348 1.237.356 0 .62-.088.788-.264a.895.895 0 0 0 .252-.64c0-.259-.084-.455-.252-.588-.168-.134-.542-.303-1.121-.508-.52-.18-.928-.358-1.22-.536a2.016 2.016 0 0 1-.715-.74 2.196 2.196 0 0 1-.274-1.111c0-.554.164-1.053.49-1.497.326-.442.84-.712 1.541-.811V3h.948v.874c1.058.127 1.744.726 2.055 1.797l-1.304.535c-.255-.734-.648-1.102-1.181-1.102-.268 0-.483.083-.644.247a.818.818 0 0 0-.243.596c0 .239.078.421.235.55.155.126.49.283 1.001.472.563.205 1.004.4 1.324.582.32.182.575.435.766.757.19.322.286.698.286 1.129 0 .66-.197 1.211-.59 1.652z" /></svg>