<svg xmlns="http://www.w3.org/2000/svg" width="14.005" height="11.315" viewBox="0 0 14.005 11.315" fill="currentColor"><path d="M13.479 7.526a3.984 3.984 0 0 0 .01-.31 4.485 4.485 0 0 0-.028-.518 4.463 4.463 0 0 0-.062-.41 4.407 4.407 0 0 0-.124-.504 4.907 4.907 0 0 0-.678-1.394C12.592 2.943 12.377.82 11.26.2c-.979-.542-2.027.123-2.758.802-.667-.14-1.318-.21-1.448-.099-.216.188-.1.684.038.861h-.091c-.254 0-.508.013-.761.04C5.677 1.098 4.138-.572 2.743.199 1.623.82 1.412 2.943 1.404 4.39a4.936 4.936 0 0 0-.88 3.136c-.277.203-.621.584-.498 1.181.13.646.763.785 1.165.81 1.2 1.595 3.774 1.798 5.812 1.798 2.038 0 4.61-.204 5.812-1.799.402-.024 1.033-.167 1.165-.809.119-.597-.225-.978-.501-1.18zM2.803 9.241c-.353 0-.638-.056-.638-.334 0-.277.285-.502.638-.502.353 0 .64.225.64.502 0 .278-.288.334-.64.334zm1.825-.836c-.395-.023-.556-.238-.578-.411a2.105 2.105 0 0 1 .065-.48c-.517.093-.997.161-1.15.165-.51.013-.559-.968-.288-1.105.272-.137 2.81-.358 2.992-.226.458.34-.458 2.09-1.041 2.057zm2.378 1.057c-.46 0-.832-.798-.832-1.24 0-.44.59-.473.827-.473s.833.03.833.47c0 .44-.374 1.243-.833 1.243h.005zm2.952-1.468c-.023.173-.183.388-.579.41-.587.034-1.506-1.721-1.04-2.056.18-.132 2.721.09 2.992.226.27.137.221 1.118-.29 1.105-.15 0-.632-.072-1.15-.165a2.12 2.12 0 0 1 .067.48zM11.2 9.24c-.353 0-.638-.056-.638-.334 0-.277.285-.502.638-.502.353 0 .64.225.64.502 0 .278-.288.334-.64.334z"/></svg>