<svg xmlns="http://www.w3.org/2000/svg" width="14" height="12" viewBox="0 0 14 12" fill="currentColor"><path d="M11.112 0H2.888Q1.456 0 .734.716 0 1.444 0 2.912v6.176C0 11.029.963 12 2.888 12h8.224C13.037 12 14 11.03 14 9.088V2.912C14 .97 13.037 0 11.112 0zM9.182 5.34a.798.798 0 0 1 0 1.317H9.18L6.653 8.376a.848.848 0 0 1-.216.102.768.768 0 0 1-.472-.007.823.823 0 0 1-.255-.142.888.888 0 0 1-.128-.136.77.77 0 0 1-.135-.29.811.811 0 0 1-.022-.186V4.282a.83.83 0 0 1 .064-.313.866.866 0 0 1 .11-.184.822.822 0 0 1 .244-.204.79.79 0 0 1 .594-.06.78.78 0 0 1 .216.103L9.181 5.34z" fill-rule="evenodd"/></svg>