<svg xmlns="http://www.w3.org/2000/svg" width="14" height="13" viewBox="0 0 14 13" fill="currentColor"><g clip-path="url(#clip-path-24_765)"><path d="M1.784 4.42L11.904 1.9 11.354 0 0 2.826l.506 1.751v7.614h11.757V4.418H1.783zm1.564-2.143l.394 1.368-.288.071-.394-1.368.288-.07zm5.004-1.244L8.746 2.4l-.288.072-.394-1.368.288-.071zm2.062.953l-.288.071L9.732.69l.288-.072.394 1.368zm-3.336.83l-.288.072-.394-1.368.288-.071.394 1.367zm-1.668.415l-.288.07-.394-1.367.288-.071.394 1.368zm-3.334.83l-.288.071-.394-1.368.288-.07.394 1.367zm9.417 2.265H1.273V4.974h10.22v1.352z"/></g><defs><clipPath id="clip-path-24_765"><path d="M0 13h14V0H0v13z"/></clipPath></defs></svg>