<svg xmlns="http://www.w3.org/2000/svg" width="14" height="13.125" viewBox="0 0 14 13.125" fill="currentColor"><path d="M10.84 1.048L4.226 2.083a.32.32 0 0 0-.061.017h-.239c-.163 0-.292.122-.292.272v7.089a1.84 1.84 0 0 0-.878-.22c-.97 0-1.756.735-1.756 1.642 0 .908.786 1.643 1.756 1.643s1.756-.735 1.756-1.643a1.57 1.57 0 0 0-.013-.195.26.26 0 0 0 .013-.08V4.844l6.145-1.016v3.99a1.846 1.846 0 0 0-.878-.22c-.97 0-1.756.736-1.756 1.643s.787 1.642 1.756 1.642c.97 0 1.756-.735 1.756-1.642 0-.066-.004-.132-.012-.196a.263.263 0 0 0 .012-.08V1.302a.279.279 0 0 0-.24-.268.262.262 0 0 0-.174-.03l-.155.025h-.016a.32.32 0 0 0-.11.02z"/></svg>