<svg xmlns="http://www.w3.org/2000/svg" width="14" height="13" viewBox="0 0 14 13" fill="currentColor"><g clip-path="url(#clip-path-24_751)"><path d="M6.02 12.25l-.15-.17c-.013-.015-.027-.026-.04-.04L5.79 12l-.04-.04c-.015-.014-.036-.027-.05-.04-.015-.013-.025-.027-.04-.04l-.05-.04c-.016-.012-.025-.028-.04-.04-.016-.012-.034-.018-.05-.03s-.034-.029-.05-.04l-.05-.03-.05-.03c-.017-.01-.033-.03-.05-.03s-.033-.03-.05-.03c-.018 0-.033-.03-.05-.03-.018 0-.042-.03-.06-.03-.018 0-.032-.02-.05-.02-.018 0-.042-.02-.06-.02-.019 0-.032-.03-.05-.03-.019 0-.042-.02-.06-.02-.019 0-.031-.02-.05-.02-.02 0-.041-.01-.06-.01-.02 0-.041-.02-.06-.02-.02 0-.031-.01-.05-.01-.02 0-.04-.02-.06-.02-.02 0-.04-.01-.06-.01-.02 0-.04-.01-.06-.01-.02 0-.04-.01-.06-.01h-.06c-.02 0-.04-.01-.06-.01H4.3c-.02 0-.04-.01-.06-.01H0V1h3.75a2.273 2.273 0 0 1 2.27 2.28v8.97zm1.16 0l.15-.17c.013-.015.026-.026.04-.04l.04-.04.04-.04c.014-.014.035-.027.05-.04.014-.013.025-.027.04-.04l.05-.04c.015-.012.024-.028.04-.04.015-.012.034-.018.05-.03s.033-.029.05-.04c.016-.011.033-.02.05-.03l.05-.03c.017-.01.033-.03.05-.03s.032-.03.05-.03c.017 0 .042-.03.06-.03.017 0 .032-.03.05-.03.018 0 .032-.02.05-.02.018 0 .041-.02.06-.02.018 0 .031-.03.05-.03.018 0 .041-.02.06-.02.018 0 .03-.02.05-.02.019 0 .04-.01.06-.01.019 0 .04-.02.06-.02.019 0 .04-.01.06-.01.019 0 .03-.02.05-.02.02 0 .04-.01.06-.01.02 0 .04-.01.06-.01.02 0 .04-.01.06-.01h.06c.02 0 .04-.01.06-.01h.06c.02 0 .04-.01.06-.01H13.2V1H9.46a2.282 2.282 0 0 0-2.28 2.28v8.97z" fill-rule="evenodd"/></g><defs><clipPath id="clip-path-24_751"><path d="M0 13h14V0H0v13z"/></clipPath></defs></svg>