<svg xmlns="http://www.w3.org/2000/svg" width="14" height="14" viewBox="0 0 14 14" fill="currentColor"><path d="M9.358 12h-6.5C1.831 12 1 11.186 1 10.182V3.818C1 2.814 1.832 2 2.857 2h6.5c1.026 0 1.858.814 1.858 1.818v.626l1.402-.773a.922.922 0 0 1 .454-.118.92.92 0 0 1 .929.909v5.073a.92.92 0 0 1-1.106.892.968.968 0 0 1-.278-.102l-1.402-.772v.629c0 1.004-.83 1.817-1.856 1.818zM5.643 5.09a.942.942 0 0 0-.434.104.918.918 0 0 0-.494.806v2.005a.918.918 0 0 0 1.105.892.933.933 0 0 0 .277-.102l1.82-1a.923.923 0 0 0 .296-.254.949.949 0 0 0 .128-.24.93.93 0 0 0 .046-.388.895.895 0 0 0-.47-.701l-1.82-1a.925.925 0 0 0-.454-.121V5.09z"/></svg>