<svg xmlns="http://www.w3.org/2000/svg" width="14" height="14" viewBox="0 0 14 14" fill="currentColor"><path d="M12.415 2.58c1.007 1.202 1.58 2.755 1.58 4.434 0 3.847-3.133 6.981-6.981 6.981-3.876 0-7.01-3.133-7.01-6.98a7.004 7.004 0 0 1 7.01-7.01c1.72 0 3.274.615 4.491 1.637.896.126 1.315-.126 1.581-1.26l.91.308c-.336 1.12-.868 1.721-1.581 1.89zM3.027 5.376c-.882 0-1.61.728-1.61 1.637 0 .882.728 1.637 1.61 1.637.909 0 1.636-.755 1.636-1.637a1.63 1.63 0 0 0-1.636-1.637zm3.987-3.96c-.91 0-1.637.728-1.637 1.61 0 .91.728 1.637 1.637 1.637.881 0 1.637-.728 1.637-1.637 0-.882-.756-1.61-1.637-1.61zm-.937 5.597c0 .518.42.923.937.923a.914.914 0 0 0 .923-.923.926.926 0 0 0-.923-.937.937.937 0 0 0-.937.937zm.937 2.323c-.91 0-1.637.741-1.637 1.636 0 .91.728 1.637 1.637 1.637.881 0 1.637-.727 1.637-1.637 0-.895-.756-1.636-1.637-1.636zm2.323-2.323c0 .882.741 1.637 1.636 1.637.91 0 1.637-.755 1.637-1.637a1.63 1.63 0 0 0-1.636-1.637 1.64 1.64 0 0 0-1.637 1.637z"/></svg>