<svg xmlns="http://www.w3.org/2000/svg" width="14" height="14" viewBox="0 0 14 14" fill="currentColor"><g clip-path="url(#clip-path-76_397)"><path d="M2 2h8.122a2 2 0 0 1 1.967 1.64L9.7 6.038a1.474 1.474 0 0 0 0 1.918l2.392 2.398A2 2 0 0 1 10.12 12H2a2 2 0 0 1-2-2V4a2 2 0 0 1 2-2zm6.112 2.4c.36 0 .653-.313.653-.7 0-.387-.292-.7-.653-.7-.36 0-.652.313-.652.7 0 .387.292.7.652.7z" fill-rule="evenodd"/><path d="M12.694 4.13l-2.152 2.158a1.11 1.11 0 0 0 0 1.445l2.152 2.158c.583.379 1.31-.097 1.31-.853V4.984c0-.756-.727-1.232-1.31-.854z"/></g><defs><clipPath id="clip-path-76_397"><path d="M0 14h14V0H0v14z" /></clipPath></defs></svg>