<svg xmlns="http://www.w3.org/2000/svg" width="160" height="160" viewBox="0 0 160 160" fill="none"><path d="M80.47 13.066a2.304 2.304 0 0 0 2.31-2.297 2.304 2.304 0 0 0-2.31-2.298 2.304 2.304 0 0 0-2.31 2.298 2.304 2.304 0 0 0 2.31 2.297zm14.09 1.474a2.31 2.31 0 0 0 2.74-1.77 2.299 2.299 0 0 0-1.78-2.726 2.31 2.31 0 0 0-2.74 1.77 2.298 2.298 0 0 0 1.78 2.726zm-30.918-1.77a2.298 2.298 0 0 1 1.78-2.726 2.31 2.31 0 0 1 2.74 1.77 2.298 2.298 0 0 1-1.78 2.726 2.31 2.31 0 0 1-2.74-1.77zm44.391 6.124a2.314 2.314 0 0 0 3.049-1.165 2.292 2.292 0 0 0-1.17-3.033 2.316 2.316 0 0 0-3.051 1.164 2.292 2.292 0 0 0 1.172 3.034zm-57.004-4.198a2.293 2.293 0 0 0-1.17 3.034 2.315 2.315 0 0 0 3.05 1.164 2.293 2.293 0 0 0 1.17-3.034 2.315 2.315 0 0 0-3.05-1.164zm69.272 11.244a2.318 2.318 0 0 0 3.227-.509 2.291 2.291 0 0 0-.511-3.21 2.32 2.32 0 0 0-3.228.509 2.291 2.291 0 0 0 .512 3.21zm-82.376-3.718a2.29 2.29 0 0 0-.511 3.21 2.318 2.318 0 0 0 3.226.508 2.29 2.29 0 0 0 .511-3.21 2.318 2.318 0 0 0-3.226-.508zm92.903 13.146a2.32 2.32 0 0 0 3.263.17 2.29 2.29 0 0 0 .171-3.244 2.318 2.318 0 0 0-3.262-.17 2.288 2.288 0 0 0-.172 3.244zm-104.15-3.074a2.29 2.29 0 0 0 .172 3.245c.948.85 2.409.773 3.262-.17a2.29 2.29 0 0 0-.17-3.245 2.319 2.319 0 0 0-3.263.17zm112.477 14.475a2.317 2.317 0 0 0 3.156.84 2.291 2.291 0 0 0 .846-3.138 2.317 2.317 0 0 0-3.156-.841 2.292 2.292 0 0 0-.846 3.139zM17.785 44.47a2.291 2.291 0 0 0 .845 3.14 2.317 2.317 0 0 0 3.156-.842c.638-1.1.259-2.504-.846-3.139a2.317 2.317 0 0 0-3.156.841zm127.133 15.171a2.313 2.313 0 0 0 2.911 1.475 2.294 2.294 0 0 0 1.482-2.895 2.311 2.311 0 0 0-2.91-1.476 2.294 2.294 0 0 0-1.483 2.896zm-133.289-1.42a2.295 2.295 0 0 0 1.484 2.896 2.313 2.313 0 0 0 2.91-1.476 2.296 2.296 0 0 0-1.483-2.895 2.313 2.313 0 0 0-2.91 1.475zm136.234 15.203a2.307 2.307 0 0 0 2.539 2.046 2.3 2.3 0 0 0 2.056-2.526 2.307 2.307 0 0 0-2.539-2.045 2.3 2.3 0 0 0-2.056 2.525zm-139.38-.48a2.3 2.3 0 0 0 2.056 2.526 2.307 2.307 0 0 0 2.54-2.045 2.3 2.3 0 0 0-2.056-2.526 2.307 2.307 0 0 0-2.54 2.045zm0 15.052a2.307 2.307 0 0 0 2.54 2.045 2.3 2.3 0 0 0 2.055-2.525 2.307 2.307 0 0 0-2.539-2.045 2.3 2.3 0 0 0-2.055 2.525zm139.379-.48a2.302 2.302 0 0 0 2.056 2.525 2.308 2.308 0 0 0 2.54-2.045 2.302 2.302 0 0 0-2.056-2.525 2.308 2.308 0 0 0-2.54 2.045zM11.629 102.72a2.313 2.313 0 0 0 2.911 1.476 2.296 2.296 0 0 0 1.483-2.896 2.312 2.312 0 0 0-2.91-1.475 2.295 2.295 0 0 0-1.484 2.895zm133.289-1.419a2.294 2.294 0 0 0 1.483 2.895 2.312 2.312 0 0 0 2.911-1.476 2.296 2.296 0 0 0-1.483-2.895 2.313 2.313 0 0 0-2.911 1.476zm-5.762 12.872a2.29 2.29 0 0 0 .846 3.139 2.316 2.316 0 0 0 3.155-.841 2.29 2.29 0 0 0-.846-3.139 2.316 2.316 0 0 0-3.155.841zm-121.372 2.298a2.316 2.316 0 0 0 3.156.841 2.291 2.291 0 0 0 .845-3.139 2.317 2.317 0 0 0-3.155-.841 2.291 2.291 0 0 0-.846 3.139zm8.894 12.177a2.32 2.32 0 0 0 3.263.17 2.289 2.289 0 0 0 .17-3.245 2.319 2.319 0 0 0-3.262-.17 2.289 2.289 0 0 0-.17 3.245zm104.151-3.075a2.289 2.289 0 0 0 .171 3.245c.947.85 2.409.773 3.262-.17a2.289 2.289 0 0 0-.171-3.245 2.318 2.318 0 0 0-3.262.17zM37.924 138.72a2.317 2.317 0 0 0 3.227-.509 2.29 2.29 0 0 0-.51-3.209 2.318 2.318 0 0 0-3.227.508 2.29 2.29 0 0 0 .51 3.21zm82.377-3.718a2.292 2.292 0 0 0-.512 3.21 2.32 2.32 0 0 0 3.228.508 2.292 2.292 0 0 0 .511-3.21 2.32 2.32 0 0 0-3.227-.508zM51.03 146.246a2.315 2.315 0 0 0 3.05-1.165 2.294 2.294 0 0 0-1.17-3.034 2.316 2.316 0 0 0-3.051 1.165 2.293 2.293 0 0 0 1.17 3.034zm57.003-4.198a2.292 2.292 0 0 0-1.171 3.034 2.314 2.314 0 0 0 3.05 1.164 2.292 2.292 0 0 0 1.171-3.033 2.316 2.316 0 0 0-3.05-1.165zm-42.612 8.849a2.31 2.31 0 0 0 2.74-1.77 2.298 2.298 0 0 0-1.78-2.725 2.31 2.31 0 0 0-2.74 1.77 2.298 2.298 0 0 0 1.78 2.725zm27.36-1.77a2.298 2.298 0 0 1 1.779-2.725 2.31 2.31 0 0 1 2.74 1.77 2.298 2.298 0 0 1-1.78 2.725 2.309 2.309 0 0 1-2.74-1.77zm-12.31 3.344a2.304 2.304 0 0 0 2.31-2.298 2.304 2.304 0 0 0-2.31-2.298 2.304 2.304 0 0 0-2.31 2.298 2.304 2.304 0 0 0 2.31 2.298z" fill-rule="evenodd" fill="#C9FFFB"/><path d="M2.794 86.685c0 9.15 1.448 17.956 4.125 26.199C2.473 102.875 0 91.774 0 80.09 0 35.857 35.44 0 79.157 0c11.55 0 22.52 2.502 32.413 7a81.93 81.93 0 0 0-25.894-4.173c-45.775 0-82.882 37.544-82.882 83.858zm154.412-13.37c0-9.15-1.448-17.956-4.124-26.199 4.445 10.01 6.918 21.11 6.918 32.795C160 124.143 124.56 160 80.843 160c-11.549 0-22.52-2.503-32.413-7a81.941 81.941 0 0 0 25.894 4.173c45.774 0 82.882-37.545 82.882-83.858z" fill-rule="evenodd" fill="url(#linear_fill_671_1008)"/><defs><linearGradient id="linear_fill_671_1008" x1="28.23" y1="22.118" x2="130.104" y2="143.829" gradientUnits="userSpaceOnUse"><stop offset="0" stop-color="#FFF"/><stop offset=".09" stop-color="#A3D0D9"/><stop offset=".859" stop-color="#A3CDD6"/><stop offset="1" stop-color="#FFF"/></linearGradient></defs></svg>