<svg xmlns="http://www.w3.org/2000/svg" width="12" height="6.857" viewBox="0 0 12 6.857" fill="none"><path fill="url(#linear_fill_841_874_0)" d="M5.434 0h1.132v1.182H5.434V0zM4.075 1.419h1.133V2.6H4.075V1.419zm1.359 0h1.132V2.6H5.434V1.419zm1.358 0h1.133V2.6H6.792V1.419zM2.717 2.837h1.132V4.02H2.717V2.837zm1.358 0h1.133V4.02H4.075V2.837zm1.359 0h1.132V4.02H5.434V2.837zm1.358 0h1.133V4.02H6.792V2.837zm1.359 0h1.132V4.02H8.151V2.837zm-5.434 1.42h1.132v1.181H2.717V4.256zm1.358 0h1.133v1.181H4.075V4.256zm1.359 0h1.132v1.181H5.434V4.256zm1.358 0h1.133v1.181H6.792V4.256zm1.359 0h1.132v1.181H8.151V4.256zM2.717 5.674h1.132v1.182H2.717V5.675zm1.358 0h1.133v1.182H4.075V5.675zm1.359 0h1.132v1.182H5.434V5.675zm1.358 0h1.133v1.182H6.792V5.675zm1.359 0h1.132v1.182H8.151V5.675zM0 6.857V5.675h1.132v1.182H0zm1.359 0V5.675H2.49v1.182H1.358zm0-2.6H2.49v1.181H1.358m9.51 1.42V5.674H12v1.182h-1.132zm-1.359 0V5.674h1.133v1.182H9.509zm0-1.42V4.256h1.133v1.182H9.509z"/><defs><linearGradient id="linear_fill_841_874_0" x1="13.86" y1="6.857" x2="0" gradientUnits="userSpaceOnUse"><stop offset=".138" stop-color="#F52702"/><stop offset="1" stop-color="#F90"/></linearGradient></defs></svg>