<svg xmlns="http://www.w3.org/2000/svg" xmlns:xlink="http://www.w3.org/1999/xlink" width="13.26953125" height="13.2998046875" viewBox="0 0 13.26953125 13.2998046875" fill="none">
<path d="M11.5071 1.87621L10.6131 1.87621L10.6131 0.72685C10.6131 0.463917 10.3991 0.25 10.1362 0.25L10.1044 0.25C9.84147 0.25 9.6276 0.463897 9.6276 0.72685L9.6276 1.87621L3.68654 1.87621L3.68654 0.72685C3.68654 0.463917 3.47264 0.25 3.20969 0.25L3.17782 0.25C2.9149 0.25 2.70097 0.463897 2.70097 0.72685L2.70097 1.87621L1.76239 1.87621C0.928452 1.87621 0.25 2.55466 0.25 3.3886L0.25 11.5375C0.25 12.3715 0.928452 13.05 1.76239 13.05L11.5071 13.05C12.3411 13.05 13.0195 12.3715 13.0195 11.5375L13.0195 3.38862C13.0195 2.55469 12.341 1.87621 11.5071 1.87621ZM12.0659 12.0623L1.22065 12.0623L1.22065 5.30855L12.0659 5.30855L12.0659 12.0623ZM12.0659 4.30399L1.22065 4.30399L1.22065 2.82989L12.0659 2.82989L12.0659 4.30399ZM5.34415 11.1708C5.42907 11.2558 5.54035 11.2982 5.65163 11.2982C5.72699 11.2982 5.80214 11.2782 5.86931 11.2393C5.90789 11.2193 5.94414 11.1932 5.9765 11.1608L10.3772 6.76013C10.547 6.5903 10.547 6.31496 10.3772 6.14515C10.2074 5.97535 9.93205 5.97535 9.76223 6.14515L5.65532 10.2521L3.57615 8.17287C3.40632 8.00306 3.13101 8.00306 2.96117 8.17287C2.79137 8.3427 2.79137 8.61801 2.96117 8.78785L5.34415 11.1708Z" stroke="rgba(255, 255, 255, 1)" stroke-width="0.5"      fill="#FFFFFF" >
</path>
</svg>
