<svg xmlns="http://www.w3.org/2000/svg" xmlns:xlink="http://www.w3.org/1999/xlink" width="25" height="27" viewBox="0 0 25 27" fill="none">
<path d="M18.75 3.85714L2.40385 3.85714C2.36452 3.85717 2.32522 3.8582 2.28594 3.86019C2.24666 3.86215 2.20745 3.8651 2.16833 3.86902C2.12919 3.8729 2.09017 3.87778 2.05126 3.8836C2.01238 3.88942 1.97365 3.8962 1.93507 3.90394C1.89651 3.91169 1.85815 3.92033 1.82001 3.92995C1.78187 3.93956 1.74399 3.95011 1.70637 3.96159C1.66875 3.97307 1.63143 3.98548 1.59441 3.99877C1.55739 4.01209 1.52071 4.02631 1.48438 4.04141C1.44806 4.05654 1.41213 4.07254 1.37659 4.08942C1.34104 4.10629 1.30592 4.12404 1.27124 4.14266C1.23657 4.16125 1.20237 4.18072 1.16866 4.201C1.13492 4.22128 1.10171 4.2424 1.06902 4.26431C1.03633 4.28622 1.00419 4.30894 0.972596 4.33245C0.941025 4.35595 0.910036 4.38021 0.879627 4.40522C0.84924 4.43026 0.819471 4.45602 0.790325 4.48251C0.761199 4.509 0.732722 4.53618 0.704898 4.56409C0.677094 4.59196 0.649991 4.62053 0.623588 4.64973C0.597166 4.67896 0.571475 4.70882 0.546514 4.73928C0.521574 4.76978 0.497386 4.80085 0.473948 4.83252C0.450511 4.86419 0.427864 4.89643 0.40601 4.92922C0.384156 4.962 0.36311 4.9953 0.342879 5.02914C0.322647 5.06295 0.303254 5.09724 0.284706 5.13202C0.266136 5.16679 0.248437 5.20202 0.231611 5.23767C0.214784 5.27332 0.198828 5.30933 0.183744 5.34576C0.16868 5.38219 0.154507 5.41898 0.141226 5.45611C0.127965 5.49323 0.115608 5.53066 0.104156 5.56839C0.0927112 5.60612 0.0821956 5.64411 0.0726082 5.68235C0.063021 5.72059 0.0543729 5.75908 0.0466647 5.79774C0.0389582 5.83643 0.0322004 5.87527 0.0263913 5.91427C0.020584 5.95329 0.0157322 5.9924 0.0118359 6.03167C0.00793978 6.0709 0.00500496 6.11023 0.00303182 6.14961C0.00105661 6.189 4.6079e-05 6.22841 0 6.26786L0 24.5893C0 25.919 1.07885 27 2.40385 27L18.75 27C20.076 27 21.1538 25.919 21.1538 24.5893L21.1538 6.26786C21.1538 4.93907 20.076 3.85714 18.75 3.85714ZM19.2308 24.5893C19.2308 24.8545 19.0144 25.0714 18.75 25.0714L2.40385 25.0714C2.39597 25.0714 2.38811 25.0712 2.38026 25.0709C2.37241 25.0705 2.36456 25.0699 2.35673 25.0691C2.3489 25.0683 2.34108 25.0674 2.33329 25.0662C2.32552 25.065 2.31778 25.0637 2.31007 25.0622C2.30233 25.0606 2.29465 25.0589 2.28702 25.057C2.27939 25.0551 2.27181 25.053 2.26427 25.0507C2.25676 25.0484 2.2493 25.0459 2.24189 25.0433C2.23447 25.0406 2.22713 25.0377 2.21986 25.0347C2.21259 25.0317 2.2054 25.0285 2.19829 25.0251C2.19117 25.0218 2.18416 25.0182 2.17722 25.0145C2.17027 25.0108 2.16342 25.0069 2.15667 25.0028C2.14992 24.9988 2.14328 24.9946 2.13675 24.9902C2.1302 24.9858 2.12377 24.9812 2.11746 24.9765C2.11113 24.9718 2.10493 24.967 2.09886 24.962C2.09277 24.957 2.08681 24.9518 2.08098 24.9465C2.07515 24.9412 2.06945 24.9358 2.06388 24.9302C2.05833 24.9246 2.05291 24.9189 2.04763 24.9131C2.04234 24.9072 2.0372 24.9013 2.03221 24.8951C2.02722 24.8891 2.02239 24.8829 2.0177 24.8765C2.01301 24.8702 2.00847 24.8637 2.00409 24.8571C1.99972 24.8506 1.99551 24.8439 1.99147 24.8372C1.98742 24.8304 1.98354 24.8235 1.97984 24.8166C1.97613 24.8096 1.9726 24.8026 1.96923 24.7954C1.96587 24.7883 1.96268 24.7811 1.95968 24.7738C1.95667 24.7665 1.95384 24.7592 1.95117 24.7517C1.94853 24.7443 1.94606 24.7368 1.94378 24.7292C1.9415 24.7217 1.93939 24.7141 1.93747 24.7064C1.93557 24.6988 1.93384 24.6911 1.9323 24.6833C1.93078 24.6756 1.92944 24.6678 1.92828 24.66C1.92713 24.6522 1.92617 24.6444 1.92539 24.6365C1.92463 24.6287 1.92405 24.6208 1.92365 24.6129C1.92327 24.6051 1.92308 24.5972 1.92308 24.5893L1.92308 6.26786C1.92308 6.25996 1.92327 6.25207 1.92365 6.2442C1.92405 6.23634 1.92463 6.22847 1.92539 6.22061C1.92617 6.21274 1.92713 6.20491 1.92828 6.1971C1.92944 6.1893 1.93078 6.18155 1.9323 6.17381C1.93384 6.16606 1.93557 6.15835 1.93747 6.1507C1.93939 6.14304 1.9415 6.13545 1.94378 6.12788C1.94606 6.12035 1.94853 6.11288 1.95117 6.10544C1.95384 6.09799 1.95667 6.09064 1.95968 6.08335C1.96268 6.07605 1.96587 6.06885 1.96923 6.06171C1.9726 6.05457 1.97613 6.04755 1.97984 6.04059C1.98354 6.03363 1.98742 6.02676 1.99147 6.01998C1.99551 6.0132 1.99972 6.00654 2.00409 6C2.00847 5.99343 2.01301 5.98698 2.0177 5.98065C2.02239 5.97429 2.02722 5.96808 2.03221 5.962C2.0372 5.95588 2.04234 5.94991 2.04763 5.94407C2.05291 5.93822 2.05833 5.9325 2.06388 5.92692C2.06945 5.92135 2.07515 5.91592 2.08098 5.91062C2.08681 5.90532 2.09277 5.90016 2.09886 5.89516C2.10493 5.89016 2.11113 5.88531 2.11746 5.88061C2.12377 5.87591 2.1302 5.87136 2.13675 5.86696C2.14328 5.86259 2.14992 5.85837 2.15667 5.8543C2.16342 5.85023 2.17027 5.84634 2.17722 5.84264C2.18416 5.83893 2.19117 5.83537 2.19829 5.832C2.2054 5.82863 2.21259 5.82543 2.21986 5.82242C2.22713 5.8194 2.23447 5.81657 2.24189 5.81389C2.2493 5.81124 2.25676 5.80877 2.26427 5.80648C2.27181 5.80419 2.27939 5.80208 2.28702 5.80015C2.29465 5.79825 2.30233 5.7965 2.31007 5.79497C2.31778 5.79343 2.32552 5.7921 2.33329 5.79093C2.34108 5.78978 2.3489 5.78882 2.35673 5.78803C2.36456 5.78728 2.37241 5.78668 2.38026 5.78629C2.38811 5.78589 2.39597 5.78571 2.40385 5.78571L18.75 5.78571C18.7579 5.78571 18.7657 5.78589 18.7736 5.78629C18.7814 5.78668 18.7893 5.78728 18.7971 5.78803C18.805 5.78882 18.8128 5.78978 18.8206 5.79093C18.8283 5.7921 18.8361 5.79343 18.8438 5.79497C18.8515 5.7965 18.8592 5.79825 18.8668 5.80015C18.8745 5.80208 18.882 5.80419 18.8896 5.80648C18.8971 5.80877 18.9045 5.81124 18.912 5.81389C18.9194 5.81657 18.9267 5.8194 18.934 5.82242C18.9413 5.82543 18.9484 5.82863 18.9556 5.832C18.9627 5.83537 18.9697 5.83893 18.9766 5.84264C18.9836 5.84634 18.9904 5.85023 18.9971 5.8543C19.0039 5.85837 19.0105 5.86259 19.0171 5.86696C19.0236 5.87136 19.0301 5.87591 19.0364 5.88061C19.0427 5.88531 19.0489 5.89016 19.055 5.89516C19.0611 5.90016 19.067 5.90532 19.0729 5.91062C19.0787 5.91592 19.0844 5.92135 19.09 5.92692C19.0955 5.9325 19.1009 5.93822 19.1062 5.94407C19.1115 5.94991 19.1166 5.95588 19.1216 5.962C19.1266 5.96808 19.1315 5.97429 19.1361 5.98065C19.1408 5.98698 19.1454 5.99343 19.1497 6C19.1541 6.00654 19.1583 6.0132 19.1624 6.01998C19.1664 6.02676 19.1703 6.03363 19.174 6.04059C19.1777 6.04755 19.1812 6.05457 19.1846 6.06171C19.188 6.06885 19.1912 6.07605 19.1942 6.08335C19.1972 6.09064 19.2 6.09799 19.2027 6.10544C19.2053 6.11288 19.2078 6.12035 19.2101 6.12788C19.2123 6.13545 19.2145 6.14304 19.2164 6.1507C19.2183 6.15835 19.22 6.16606 19.2215 6.17381C19.2231 6.18155 19.2244 6.1893 19.2256 6.1971C19.2267 6.20491 19.2277 6.21274 19.2285 6.22061C19.2292 6.22847 19.2298 6.23634 19.2302 6.2442C19.2306 6.25207 19.2308 6.25996 19.2308 6.26786L19.2308 24.5893ZM22.5962 0L6.25 0C6.23425 0 6.21854 0.000386697 6.20282 0.00116009C6.18711 0.00193556 6.17139 0.0030968 6.15574 0.00464361C6.14008 0.00619062 6.12449 0.00812203 6.10892 0.0104383C6.09336 0.0127528 6.07785 0.0154498 6.06241 0.0185293C6.047 0.021607 6.03164 0.0250634 6.01638 0.0288984C6.00111 0.0327336 5.98594 0.0369412 5.97088 0.0415215C5.95583 0.0461019 5.9409 0.0510508 5.92608 0.0563685C5.91127 0.0616842 5.89657 0.0673626 5.88203 0.0734032C5.86749 0.0794421 5.8531 0.0858344 5.83888 0.0925805C5.82467 0.0993284 5.81061 0.106422 5.79672 0.113861C5.78284 0.1213 5.76917 0.129077 5.75568 0.137191C5.74219 0.145303 5.72888 0.153743 5.71581 0.162512C5.70273 0.171279 5.68987 0.180364 5.67722 0.189765C5.66457 0.199165 5.65216 0.208871 5.63999 0.218884C5.62782 0.228894 5.61593 0.239199 5.60427 0.249798C5.59261 0.260395 5.58122 0.271274 5.5701 0.282433C5.55895 0.293591 5.54811 0.305016 5.53756 0.316711C5.52698 0.328406 5.51671 0.340351 5.50673 0.352549C5.49672 0.364747 5.48705 0.377183 5.47767 0.389861C5.4683 0.402538 5.45925 0.415435 5.45051 0.428556C5.44177 0.441679 5.43335 0.455007 5.42527 0.468543C5.41719 0.48208 5.40944 0.495806 5.40201 0.509724C5.39459 0.523643 5.3875 0.537734 5.38077 0.551999C5.37404 0.566268 5.36767 0.58069 5.36166 0.595269C5.35562 0.60985 5.34997 0.624568 5.34468 0.639427C5.33936 0.654286 5.33443 0.669269 5.32987 0.684369C5.3253 0.699469 5.32109 0.714674 5.31728 0.729982C5.31346 0.74529 5.31001 0.760683 5.30694 0.776163C5.30388 0.791642 5.30117 0.807185 5.29886 0.822795C5.29654 0.838407 5.29462 0.854065 5.29309 0.869768C5.29156 0.885473 5.29038 0.901206 5.28963 0.916969C5.28885 0.932732 5.28846 0.948505 5.28846 0.964286C5.28846 0.980067 5.28885 0.995839 5.28963 1.0116C5.29038 1.02737 5.29156 1.0431 5.29309 1.0588C5.29462 1.07451 5.29654 1.09016 5.29886 1.10576C5.30117 1.12137 5.30388 1.13692 5.30694 1.15241C5.31001 1.16788 5.31346 1.18327 5.31728 1.19858C5.32109 1.21389 5.3253 1.22909 5.32987 1.2442C5.33443 1.25931 5.33936 1.27428 5.34468 1.28913C5.34997 1.30399 5.35562 1.31872 5.36166 1.33331C5.36767 1.34789 5.37404 1.36232 5.38077 1.37658C5.3875 1.39084 5.39459 1.40493 5.40201 1.41886C5.40944 1.43276 5.41719 1.44648 5.42527 1.46002C5.43335 1.47356 5.44177 1.48689 5.45051 1.50001C5.45925 1.51312 5.4683 1.52602 5.47767 1.5387C5.48705 1.55138 5.49672 1.56382 5.50673 1.57603C5.51671 1.58823 5.52698 1.60017 5.53756 1.61186C5.54811 1.62356 5.55895 1.63498 5.5701 1.64613C5.58122 1.6573 5.59261 1.66818 5.60427 1.67876C5.61593 1.68937 5.62782 1.69967 5.63999 1.70968C5.65216 1.7197 5.66457 1.72942 5.67722 1.73882C5.68987 1.74822 5.70273 1.7573 5.71581 1.76606C5.72888 1.77482 5.74219 1.78326 5.75568 1.79137C5.76917 1.79949 5.78284 1.80726 5.79672 1.8147C5.81061 1.82215 5.82467 1.82925 5.83888 1.836C5.8531 1.84275 5.86749 1.84914 5.88203 1.85517C5.89657 1.86121 5.91124 1.86689 5.92605 1.87219C5.94087 1.87752 5.95583 1.88247 5.97088 1.88705C5.98594 1.89163 6.00111 1.89584 6.01638 1.89967C6.03164 1.90351 6.047 1.90697 6.06241 1.91004C6.07785 1.91311 6.09336 1.91582 6.10892 1.91815C6.12449 1.92046 6.14008 1.92238 6.15574 1.92393C6.17139 1.92548 6.18711 1.92663 6.20282 1.9274C6.21854 1.92818 6.23425 1.92857 6.25 1.92857L22.5962 1.92857C22.604 1.92857 22.6119 1.92876 22.6197 1.92914C22.6276 1.92954 22.6354 1.93013 22.6433 1.93089C22.6511 1.93168 22.6589 1.93264 22.6667 1.93378C22.6745 1.93495 22.6822 1.93629 22.6899 1.93782C22.6977 1.93937 22.7053 1.9411 22.713 1.94301C22.7206 1.94493 22.7282 1.94704 22.7357 1.94933C22.7432 1.95162 22.7507 1.95409 22.7581 1.95675C22.7655 1.95942 22.7729 1.96226 22.7801 1.96527C22.7874 1.96829 22.7946 1.97148 22.8017 1.97486C22.8088 1.97823 22.8158 1.98178 22.8228 1.98549C22.8297 1.98921 22.8366 1.9931 22.8433 1.99716C22.8501 2.00122 22.8567 2.00543 22.8633 2.00981C22.8698 2.01421 22.8762 2.01876 22.8825 2.02346C22.8889 2.02816 22.8951 2.03302 22.9011 2.03802C22.9072 2.04302 22.9132 2.04817 22.919 2.05348C22.9249 2.05878 22.9306 2.06421 22.9361 2.06978C22.9417 2.07536 22.9471 2.08108 22.9524 2.08693C22.9577 2.09277 22.9628 2.09875 22.9678 2.10485C22.9728 2.11094 22.9776 2.11716 22.9823 2.12351C22.987 2.12984 22.9915 2.13628 22.9959 2.14285C23.0003 2.1494 23.0045 2.15606 23.0085 2.16283C23.0126 2.1696 23.0164 2.17647 23.0202 2.18344C23.0239 2.1904 23.0274 2.19744 23.0308 2.20457C23.0341 2.2117 23.0373 2.21891 23.0403 2.2262C23.0433 2.2335 23.0462 2.24086 23.0488 2.24829C23.0515 2.25573 23.0539 2.26321 23.0562 2.27074C23.0585 2.2783 23.0606 2.2859 23.0625 2.29355C23.0644 2.30121 23.0662 2.30891 23.0677 2.31667C23.0692 2.3244 23.0706 2.33216 23.0717 2.33996C23.0729 2.34777 23.0738 2.35561 23.0746 2.36346C23.0754 2.37132 23.076 2.37919 23.0764 2.38706C23.0767 2.39493 23.0769 2.40282 23.0769 2.41071L23.0769 20.7321C23.0769 20.7479 23.0773 20.7637 23.0781 20.7795C23.0788 20.7952 23.08 20.811 23.0816 20.8267C23.0831 20.8424 23.085 20.858 23.0873 20.8736C23.0896 20.8892 23.0923 20.9048 23.0954 20.9203C23.0985 20.9357 23.1019 20.9511 23.1057 20.9664C23.1096 20.9817 23.1138 20.997 23.1183 21.0121C23.1229 21.0272 23.1278 21.0421 23.1331 21.057C23.1384 21.0718 23.1441 21.0866 23.1501 21.1012C23.1561 21.1157 23.1625 21.1302 23.1692 21.1444C23.176 21.1587 23.183 21.1728 23.1904 21.1867C23.1979 21.2006 23.2056 21.2143 23.2137 21.2279C23.2218 21.2414 23.2302 21.2548 23.239 21.2679C23.2477 21.281 23.2568 21.2939 23.2661 21.3066C23.2755 21.3192 23.2852 21.3317 23.2952 21.3439C23.3052 21.3561 23.3154 21.368 23.326 21.3797C23.3366 21.3914 23.3474 21.4028 23.3585 21.414C23.3697 21.4252 23.3811 21.436 23.3927 21.4466C23.4044 21.4572 23.4163 21.4675 23.4285 21.4775C23.4406 21.4876 23.453 21.4973 23.4657 21.5067C23.4783 21.516 23.4912 21.5251 23.5043 21.5339C23.5173 21.5427 23.5306 21.5511 23.5441 21.5592C23.5576 21.5673 23.5713 21.5751 23.5852 21.5826C23.5991 21.59 23.6131 21.5971 23.6273 21.6039C23.6416 21.6106 23.6559 21.617 23.6705 21.623C23.685 21.6291 23.6997 21.6347 23.7145 21.64C23.7293 21.6454 23.7443 21.6503 23.7593 21.6549C23.7744 21.6595 23.7896 21.6637 23.8048 21.6675C23.8201 21.6714 23.8355 21.6748 23.8509 21.6779C23.8663 21.681 23.8818 21.6837 23.8974 21.686C23.913 21.6883 23.9286 21.6903 23.9442 21.6918C23.9599 21.6933 23.9756 21.6945 23.9913 21.6953C24.007 21.696 24.0227 21.6964 24.0385 21.6964C24.0542 21.6964 24.0699 21.696 24.0856 21.6953C24.1014 21.6945 24.1171 21.6933 24.1327 21.6918C24.1484 21.6903 24.164 21.6883 24.1795 21.686C24.1951 21.6837 24.2106 21.681 24.2261 21.6779C24.2415 21.6748 24.2568 21.6714 24.2721 21.6675C24.2873 21.6637 24.3025 21.6595 24.3176 21.6549C24.3326 21.6503 24.3476 21.6454 24.3624 21.64C24.3772 21.6347 24.3919 21.6291 24.4064 21.623C24.421 21.617 24.4354 21.6106 24.4496 21.6039C24.4638 21.5971 24.4779 21.59 24.4917 21.5826C24.5056 21.5751 24.5193 21.5673 24.5328 21.5592C24.5463 21.5511 24.5596 21.5427 24.5727 21.5339C24.5857 21.5251 24.5986 21.5161 24.6112 21.5067C24.6239 21.4973 24.6363 21.4876 24.6485 21.4775C24.6606 21.4675 24.6725 21.4572 24.6842 21.4466C24.6959 21.436 24.7072 21.4252 24.7184 21.414C24.7295 21.4028 24.7404 21.3914 24.7509 21.3797C24.7615 21.368 24.7718 21.3561 24.7817 21.3439C24.7917 21.3317 24.8014 21.3192 24.8108 21.3066C24.8202 21.2939 24.8292 21.281 24.838 21.2679C24.8467 21.2548 24.8551 21.2414 24.8632 21.2279C24.8713 21.2143 24.879 21.2006 24.8864 21.1867C24.8939 21.1728 24.901 21.1587 24.9077 21.1444C24.9144 21.1302 24.9208 21.1157 24.9268 21.1012C24.9328 21.0866 24.9385 21.0718 24.9438 21.057C24.9491 21.0421 24.954 21.0272 24.9586 21.0121C24.9632 20.997 24.9674 20.9817 24.9712 20.9664C24.975 20.9511 24.9785 20.9357 24.9815 20.9203C24.9846 20.9048 24.9873 20.8892 24.9896 20.8736C24.9919 20.858 24.9938 20.8424 24.9954 20.8267C24.9969 20.811 24.9981 20.7952 24.9988 20.7795C24.9996 20.7637 25 20.7479 25 20.7321L25 2.41071C25 1.08193 23.9221 0 22.5962 0ZM15.3846 8.91964L5.76923 8.91964C5.75349 8.91964 5.73777 8.92003 5.72206 8.92082C5.70634 8.92157 5.69063 8.92275 5.67497 8.92428C5.65932 8.92582 5.64372 8.92775 5.62816 8.93007C5.61259 8.93239 5.59709 8.9351 5.58164 8.93818C5.56623 8.94125 5.55087 8.94471 5.53561 8.94854C5.52034 8.95237 5.50517 8.95659 5.49011 8.96117C5.47506 8.96575 5.4601 8.97069 5.44528 8.97602C5.43047 8.98133 5.41581 8.98699 5.40126 8.99305C5.38672 8.99908 5.37233 9.00546 5.35811 9.01221C5.3439 9.01896 5.32984 9.02608 5.31596 9.03352C5.30207 9.04096 5.2884 9.04874 5.27491 9.05684C5.26142 9.06495 5.24811 9.07339 5.23504 9.08216C5.22197 9.09092 5.2091 9.09999 5.19645 9.1094C5.1838 9.1188 5.17139 9.1285 5.15922 9.13854C5.14706 9.14854 5.13516 9.15885 5.1235 9.16945C5.11184 9.18003 5.10045 9.19091 5.08933 9.20209C5.07819 9.21324 5.06734 9.22466 5.05679 9.23635C5.04621 9.24804 5.03594 9.25998 5.02596 9.27218C5.01596 9.28438 5.00628 9.29683 4.9969 9.30952C4.98753 9.3222 4.97849 9.3351 4.96974 9.34821C4.961 9.36132 4.95258 9.37467 4.9445 9.3882C4.93642 9.40173 4.92867 9.41544 4.92124 9.42936C4.91382 9.44328 4.90673 9.45738 4.9 9.47164C4.89327 9.48589 4.8869 9.50032 4.88089 9.51491C4.87485 9.52949 4.8692 9.5442 4.86391 9.55905C4.85859 9.57391 4.85367 9.58892 4.8491 9.60401C4.84453 9.61911 4.84032 9.63433 4.83651 9.64964C4.83269 9.66495 4.82924 9.68034 4.82617 9.6958C4.82311 9.71129 4.8204 9.72684 4.81809 9.74245C4.81578 9.75806 4.81385 9.7737 4.81232 9.7894C4.81079 9.8051 4.80962 9.82086 4.80886 9.83662C4.80808 9.85238 4.80769 9.86814 4.80769 9.88393C4.80769 9.89972 4.80808 9.91548 4.80886 9.93124C4.80962 9.947 4.81079 9.96276 4.81232 9.97846C4.81385 9.99416 4.81578 10.0098 4.81809 10.0254C4.8204 10.041 4.82311 10.0566 4.82617 10.0721C4.82924 10.0875 4.83269 10.1029 4.83651 10.1182C4.84032 10.1335 4.84453 10.1487 4.8491 10.1638C4.85367 10.1789 4.85859 10.1939 4.86391 10.2088C4.8692 10.2236 4.87485 10.2384 4.88089 10.2529C4.8869 10.2675 4.89327 10.282 4.9 10.2962C4.90673 10.3105 4.91382 10.3246 4.92124 10.3385C4.92867 10.3524 4.93642 10.3661 4.9445 10.3797C4.95258 10.3932 4.961 10.4065 4.96974 10.4196C4.97849 10.4328 4.98753 10.4457 4.9969 10.4583C5.00628 10.471 5.01596 10.4835 5.02596 10.4957C5.03594 10.5079 5.04621 10.5198 5.05679 10.5315C5.06734 10.5432 5.07819 10.5546 5.08933 10.5658C5.10045 10.5769 5.11184 10.5878 5.1235 10.5984C5.13516 10.609 5.14706 10.6193 5.15922 10.6293C5.17139 10.6394 5.1838 10.6491 5.19645 10.6585C5.2091 10.6679 5.22197 10.6769 5.23504 10.6857C5.24811 10.6945 5.26142 10.7029 5.27491 10.711C5.2884 10.7191 5.30207 10.7269 5.31596 10.7343C5.32984 10.7418 5.3439 10.7489 5.35811 10.7556C5.37233 10.7624 5.38672 10.7688 5.40126 10.7748C5.41581 10.7809 5.43047 10.7865 5.44528 10.7918C5.4601 10.7972 5.47506 10.8021 5.49011 10.8067C5.50517 10.8113 5.52034 10.8155 5.53561 10.8193C5.55087 10.8231 5.56623 10.8266 5.58164 10.8297C5.59709 10.8328 5.61259 10.8355 5.62816 10.8378C5.64372 10.8401 5.65932 10.842 5.67497 10.8436C5.69063 10.8451 5.70634 10.8463 5.72206 10.847C5.73777 10.8478 5.75349 10.8482 5.76923 10.8482L15.3846 10.8482C15.4004 10.8482 15.4161 10.8478 15.4318 10.847C15.4475 10.8463 15.4632 10.8451 15.4789 10.8436C15.4945 10.842 15.5101 10.8401 15.5257 10.8378C15.5413 10.8355 15.5568 10.8328 15.5722 10.8297C15.5876 10.8266 15.603 10.8231 15.6182 10.8193C15.6335 10.8155 15.6487 10.8113 15.6637 10.8067C15.6788 10.8021 15.6937 10.7972 15.7085 10.7918C15.7233 10.7865 15.738 10.7809 15.7526 10.7748C15.7671 10.7688 15.7815 10.7624 15.7957 10.7556C15.8099 10.7489 15.824 10.7418 15.8379 10.7343C15.8517 10.7269 15.8654 10.7191 15.8789 10.711C15.8924 10.7029 15.9057 10.6945 15.9188 10.6857C15.9319 10.6769 15.9447 10.6679 15.9574 10.6585C15.97 10.6491 15.9825 10.6394 15.9946 10.6293C16.0068 10.6193 16.0187 10.609 16.0303 10.5984C16.042 10.5878 16.0534 10.5769 16.0645 10.5658C16.0757 10.5546 16.0865 10.5432 16.0971 10.5315C16.1076 10.5198 16.1179 10.5079 16.1279 10.4957C16.1379 10.4835 16.1476 10.471 16.1569 10.4583C16.1663 10.4457 16.1754 10.4328 16.1841 10.4196C16.1928 10.4065 16.2013 10.3932 16.2093 10.3797C16.2174 10.3661 16.2252 10.3524 16.2326 10.3385C16.24 10.3246 16.2471 10.3105 16.2538 10.2962C16.2605 10.282 16.2669 10.2675 16.273 10.2529C16.279 10.2384 16.2846 10.2236 16.2899 10.2088C16.2953 10.1939 16.3002 10.1789 16.3047 10.1638C16.3093 10.1487 16.3135 10.1335 16.3173 10.1182C16.3212 10.1029 16.3246 10.0875 16.3277 10.0721C16.3307 10.0566 16.3334 10.041 16.3358 10.0254C16.3381 10.0098 16.34 9.99416 16.3415 9.97846C16.3431 9.96276 16.3442 9.947 16.345 9.93124C16.3458 9.91548 16.3462 9.89972 16.3462 9.88393C16.3462 9.86814 16.3458 9.85238 16.345 9.83662C16.3442 9.82086 16.3431 9.8051 16.3415 9.7894C16.34 9.7737 16.3381 9.75806 16.3358 9.74245C16.3334 9.72684 16.3307 9.71129 16.3277 9.6958C16.3246 9.68034 16.3212 9.66495 16.3173 9.64964C16.3135 9.63433 16.3093 9.61911 16.3047 9.60401C16.3002 9.58892 16.2953 9.57391 16.2899 9.55905C16.2846 9.5442 16.279 9.52949 16.273 9.51491C16.2669 9.50032 16.2605 9.48589 16.2538 9.47164C16.2471 9.45738 16.24 9.44328 16.2326 9.42936C16.2252 9.41544 16.2174 9.40173 16.2093 9.3882C16.2013 9.37467 16.1928 9.36132 16.1841 9.34821C16.1754 9.3351 16.1663 9.3222 16.1569 9.30952C16.1476 9.29683 16.1379 9.28438 16.1279 9.27218C16.1179 9.25998 16.1076 9.24804 16.0971 9.23635C16.0865 9.22466 16.0757 9.21324 16.0645 9.20209C16.0534 9.19091 16.042 9.18003 16.0303 9.16945C16.0187 9.15885 16.0068 9.14854 15.9946 9.13854C15.9825 9.1285 15.97 9.1188 15.9574 9.1094C15.9447 9.09999 15.9319 9.09092 15.9188 9.08216C15.9057 9.07339 15.8924 9.06495 15.8789 9.05684C15.8654 9.04874 15.8517 9.04096 15.8379 9.03352C15.824 9.02608 15.8099 9.01896 15.7957 9.01221C15.7815 9.00546 15.7671 8.99908 15.7526 8.99305C15.738 8.98699 15.7233 8.98133 15.7085 8.97602C15.6937 8.97069 15.6788 8.96575 15.6637 8.96117C15.6487 8.95659 15.6335 8.95237 15.6182 8.94854C15.603 8.94471 15.5876 8.94125 15.5722 8.93818C15.5568 8.9351 15.5413 8.93239 15.5257 8.93007C15.5101 8.92775 15.4945 8.92582 15.4789 8.92428C15.4632 8.92275 15.4475 8.92157 15.4318 8.92082C15.4161 8.92003 15.4004 8.91964 15.3846 8.91964ZM15.3846 13.7411L5.76923 13.7411C5.75349 13.7411 5.73777 13.7415 5.72206 13.7422C5.70634 13.743 5.69063 13.7442 5.67497 13.7457C5.65932 13.7472 5.64372 13.7492 5.62816 13.7515C5.61259 13.7538 5.59709 13.7565 5.58164 13.7596C5.56623 13.7627 5.55087 13.7661 5.53561 13.77C5.52034 13.7738 5.50517 13.778 5.49011 13.7826C5.47506 13.7872 5.4601 13.7921 5.44528 13.7975C5.43047 13.8028 5.41581 13.8084 5.40126 13.8145C5.38672 13.8205 5.37233 13.8269 5.35811 13.8336C5.3439 13.8404 5.32984 13.8475 5.31596 13.8549C5.30207 13.8624 5.2884 13.8702 5.27491 13.8783C5.26142 13.8864 5.24811 13.8948 5.23504 13.9036C5.22197 13.9124 5.2091 13.9214 5.19645 13.9308C5.1838 13.9402 5.17139 13.9499 5.15922 13.96C5.14706 13.97 5.13516 13.9803 5.1235 13.9909C5.11184 14.0015 5.10045 14.0123 5.08933 14.0235C5.07819 14.0347 5.06734 14.0461 5.05679 14.0578C5.04621 14.0695 5.03594 14.0814 5.02596 14.0936C5.01596 14.1058 5.00628 14.1183 4.9969 14.1309C4.98753 14.1436 4.97849 14.1565 4.96974 14.1696C4.961 14.1827 4.95258 14.1961 4.9445 14.2096C4.93642 14.2232 4.92867 14.2369 4.92124 14.2508C4.91382 14.2647 4.90673 14.2788 4.9 14.2931C4.89327 14.3073 4.8869 14.3218 4.88089 14.3363C4.87485 14.3509 4.8692 14.3656 4.86391 14.3805C4.85859 14.3953 4.85367 14.4103 4.8491 14.4254C4.84453 14.4405 4.84032 14.4558 4.83651 14.4711C4.83269 14.4864 4.82924 14.5018 4.82617 14.5172C4.82311 14.5327 4.8204 14.5483 4.81809 14.5639C4.81578 14.5795 4.81385 14.5951 4.81232 14.6108C4.81079 14.6265 4.80962 14.6423 4.80886 14.658C4.80808 14.6738 4.80769 14.6896 4.80769 14.7054C4.80769 14.7211 4.80808 14.7369 4.80886 14.7527C4.80962 14.7684 4.81079 14.7842 4.81232 14.7999C4.81385 14.8156 4.81578 14.8312 4.81809 14.8468C4.8204 14.8624 4.82311 14.878 4.82617 14.8935C4.82924 14.9089 4.83269 14.9243 4.83651 14.9396C4.84032 14.955 4.84453 14.9702 4.8491 14.9853C4.85367 15.0004 4.85859 15.0153 4.86391 15.0302C4.8692 15.0451 4.87485 15.0598 4.88089 15.0744C4.8869 15.089 4.89327 15.1034 4.9 15.1176C4.90673 15.1319 4.91382 15.146 4.92124 15.1599C4.92867 15.1738 4.93642 15.1876 4.9445 15.2011C4.95258 15.2146 4.961 15.228 4.96974 15.2411C4.97849 15.2542 4.98753 15.2671 4.9969 15.2798C5.00628 15.2925 5.01596 15.3049 5.02596 15.3171C5.03594 15.3293 5.04621 15.3412 5.05679 15.3529C5.06734 15.3646 5.07819 15.376 5.08933 15.3872C5.10045 15.3984 5.11184 15.4093 5.1235 15.4198C5.13516 15.4304 5.14706 15.4407 5.15922 15.4508C5.17139 15.4608 5.1838 15.4705 5.19645 15.4799C5.2091 15.4893 5.22197 15.4984 5.23504 15.5071C5.24811 15.5159 5.26142 15.5243 5.27491 15.5324C5.2884 15.5405 5.30207 15.5483 5.31596 15.5558C5.32984 15.5632 5.3439 15.5703 5.35811 15.5771C5.37233 15.5838 5.38672 15.5902 5.40126 15.5962C5.41581 15.6023 5.43047 15.608 5.44528 15.6133C5.4601 15.6186 5.47506 15.6235 5.49011 15.6281C5.50517 15.6327 5.52034 15.6369 5.53561 15.6407C5.55087 15.6446 5.56623 15.648 5.58164 15.6511C5.59709 15.6542 5.61259 15.6569 5.62816 15.6592C5.64372 15.6615 5.65932 15.6635 5.67497 15.665C5.69063 15.6665 5.70634 15.6677 5.72206 15.6685C5.73777 15.6693 5.75349 15.6696 5.76923 15.6696L15.3846 15.6696C15.4004 15.6696 15.4161 15.6693 15.4318 15.6685C15.4475 15.6677 15.4632 15.6665 15.4789 15.665C15.4945 15.6635 15.5101 15.6615 15.5257 15.6592C15.5413 15.6569 15.5568 15.6542 15.5722 15.6511C15.5876 15.648 15.603 15.6446 15.6182 15.6407C15.6335 15.6369 15.6487 15.6327 15.6637 15.6281C15.6788 15.6235 15.6937 15.6186 15.7085 15.6133C15.7233 15.608 15.738 15.6023 15.7526 15.5962C15.7671 15.5902 15.7815 15.5838 15.7957 15.5771C15.8099 15.5703 15.824 15.5632 15.8379 15.5558C15.8517 15.5483 15.8654 15.5405 15.8789 15.5324C15.8924 15.5243 15.9057 15.5159 15.9188 15.5071C15.9319 15.4984 15.9447 15.4893 15.9574 15.4799C15.97 15.4705 15.9825 15.4608 15.9946 15.4508C16.0068 15.4407 16.0187 15.4304 16.0303 15.4198C16.042 15.4093 16.0534 15.3984 16.0645 15.3872C16.0757 15.376 16.0865 15.3646 16.0971 15.3529C16.1076 15.3412 16.1179 15.3293 16.1279 15.3171C16.1379 15.3049 16.1476 15.2925 16.1569 15.2798C16.1663 15.2671 16.1754 15.2542 16.1841 15.2411C16.1928 15.228 16.2013 15.2146 16.2093 15.2011C16.2174 15.1876 16.2252 15.1738 16.2326 15.1599C16.24 15.146 16.2471 15.1319 16.2538 15.1176C16.2605 15.1034 16.2669 15.089 16.273 15.0744C16.279 15.0598 16.2846 15.0451 16.2899 15.0302C16.2953 15.0153 16.3002 15.0004 16.3047 14.9853C16.3093 14.9702 16.3135 14.955 16.3173 14.9396C16.3212 14.9243 16.3246 14.9089 16.3277 14.8935C16.3307 14.878 16.3334 14.8624 16.3358 14.8468C16.3381 14.8312 16.34 14.8156 16.3415 14.7999C16.3431 14.7842 16.3442 14.7684 16.345 14.7527C16.3458 14.7369 16.3462 14.7211 16.3462 14.7054C16.3462 14.6896 16.3458 14.6738 16.345 14.658C16.3442 14.6423 16.3431 14.6265 16.3415 14.6108C16.34 14.5951 16.3381 14.5795 16.3358 14.5639C16.3334 14.5483 16.3307 14.5327 16.3277 14.5172C16.3246 14.5018 16.3212 14.4864 16.3173 14.4711C16.3135 14.4558 16.3093 14.4405 16.3047 14.4254C16.3002 14.4103 16.2953 14.3953 16.2899 14.3805C16.2846 14.3656 16.279 14.3509 16.273 14.3363C16.2669 14.3218 16.2605 14.3073 16.2538 14.2931C16.2471 14.2788 16.24 14.2647 16.2326 14.2508C16.2252 14.2369 16.2174 14.2232 16.2093 14.2096C16.2013 14.1961 16.1928 14.1827 16.1841 14.1696C16.1754 14.1565 16.1663 14.1436 16.1569 14.1309C16.1476 14.1183 16.1379 14.1058 16.1279 14.0936C16.1179 14.0814 16.1076 14.0695 16.0971 14.0578C16.0865 14.0461 16.0757 14.0347 16.0645 14.0235C16.0534 14.0123 16.042 14.0015 16.0303 13.9909C16.0187 13.9803 16.0068 13.97 15.9946 13.96C15.9825 13.9499 15.97 13.9402 15.9574 13.9308C15.9447 13.9214 15.9319 13.9124 15.9188 13.9036C15.9057 13.8948 15.8924 13.8864 15.8789 13.8783C15.8654 13.8702 15.8517 13.8624 15.8379 13.8549C15.824 13.8475 15.8099 13.8404 15.7957 13.8336C15.7815 13.8269 15.7671 13.8205 15.7526 13.8145C15.738 13.8084 15.7233 13.8028 15.7085 13.7975C15.6937 13.7921 15.6788 13.7872 15.6637 13.7826C15.6487 13.778 15.6335 13.7738 15.6182 13.77C15.603 13.7661 15.5876 13.7627 15.5722 13.7596C15.5568 13.7565 15.5413 13.7538 15.5257 13.7515C15.5101 13.7492 15.4945 13.7472 15.4789 13.7457C15.4632 13.7442 15.4475 13.743 15.4318 13.7422C15.4161 13.7415 15.4004 13.7411 15.3846 13.7411ZM11.5385 18.522L5.76923 18.522C5.75349 18.522 5.73777 18.5224 5.72206 18.5232C5.70634 18.5239 5.69063 18.5251 5.67497 18.5266C5.65932 18.5282 5.64372 18.5301 5.62816 18.5324C5.61259 18.5347 5.59709 18.5375 5.58164 18.5405C5.56623 18.5436 5.55087 18.5471 5.53561 18.5509C5.52034 18.5547 5.50517 18.5589 5.49011 18.5635C5.47506 18.5681 5.4601 18.573 5.44528 18.5784C5.43047 18.5837 5.41581 18.5893 5.40126 18.5954C5.38672 18.6014 5.37233 18.6078 5.35811 18.6146C5.3439 18.6213 5.32984 18.6284 5.31596 18.6359C5.30207 18.6433 5.2884 18.6511 5.27491 18.6592C5.26142 18.6673 5.24811 18.6757 5.23504 18.6845C5.22197 18.6933 5.2091 18.7024 5.19645 18.7118C5.1838 18.7212 5.17139 18.7309 5.15922 18.7409C5.14706 18.7509 5.13516 18.7612 5.1235 18.7718C5.11184 18.7824 5.10045 18.7933 5.08933 18.8044C5.07819 18.8156 5.06734 18.827 5.05679 18.8387C5.04621 18.8504 5.03594 18.8623 5.02596 18.8745C5.01596 18.8867 5.00628 18.8992 4.9969 18.9119C4.98753 18.9246 4.97849 18.9375 4.96974 18.9506C4.961 18.9637 4.95258 18.977 4.9445 18.9906C4.93642 19.0041 4.92867 19.0178 4.92124 19.0317C4.91382 19.0456 4.90673 19.0597 4.9 19.074C4.89327 19.0882 4.8869 19.1027 4.88089 19.1173C4.87485 19.1319 4.8692 19.1466 4.86391 19.1614C4.85859 19.1763 4.85367 19.1913 4.8491 19.2064C4.84453 19.2215 4.84032 19.2367 4.83651 19.252C4.83269 19.2673 4.82924 19.2827 4.82617 19.2982C4.82311 19.3136 4.8204 19.3292 4.81809 19.3448C4.81578 19.3604 4.81385 19.3761 4.81232 19.3918C4.81079 19.4075 4.80962 19.4232 4.80886 19.439C4.80808 19.4547 4.80769 19.4705 4.80769 19.4863C4.80769 19.5021 4.80808 19.5178 4.80886 19.5336C4.80962 19.5494 4.81079 19.5651 4.81232 19.5808C4.81385 19.5965 4.81578 19.6122 4.81809 19.6278C4.8204 19.6434 4.82311 19.6589 4.82617 19.6744C4.82924 19.6899 4.83269 19.7053 4.83651 19.7206C4.84032 19.7359 4.84453 19.7511 4.8491 19.7662C4.85367 19.7813 4.85859 19.7963 4.86391 19.8111C4.8692 19.826 4.87485 19.8407 4.88089 19.8553C4.8869 19.8699 4.89327 19.8843 4.9 19.8986C4.90673 19.9128 4.91382 19.9269 4.92124 19.9409C4.92867 19.9547 4.93642 19.9685 4.9445 19.982C4.95258 19.9955 4.961 20.0089 4.96974 20.022C4.97849 20.0351 4.98753 20.048 4.9969 20.0607C5.00628 20.0734 5.01596 20.0858 5.02596 20.098C5.03594 20.1102 5.04621 20.1222 5.05679 20.1339C5.06734 20.1456 5.07819 20.157 5.08933 20.1681C5.10045 20.1793 5.11184 20.1902 5.1235 20.2008C5.13516 20.2114 5.14706 20.2217 5.15922 20.2317C5.17139 20.2417 5.1838 20.2514 5.19645 20.2608C5.2091 20.2702 5.22197 20.2793 5.23504 20.2881C5.24811 20.2968 5.26142 20.3053 5.27491 20.3134C5.2884 20.3215 5.30207 20.3293 5.31596 20.3367C5.32984 20.3441 5.3439 20.3512 5.35811 20.358C5.37233 20.3647 5.38672 20.3711 5.40126 20.3772C5.41581 20.3832 5.43047 20.3889 5.44528 20.3942C5.4601 20.3995 5.47506 20.4045 5.49011 20.409C5.50517 20.4136 5.52034 20.4178 5.53561 20.4217C5.55087 20.4255 5.56623 20.429 5.58164 20.432C5.59709 20.4351 5.61259 20.4378 5.62816 20.4401C5.64372 20.4425 5.65932 20.4444 5.67497 20.4459C5.69063 20.4475 5.70634 20.4486 5.72206 20.4494C5.73777 20.4502 5.75349 20.4506 5.76923 20.4506L11.5385 20.4506C11.5542 20.4506 11.5699 20.4502 11.5856 20.4494C11.6014 20.4486 11.6171 20.4475 11.6327 20.4459C11.6484 20.4444 11.664 20.4425 11.6795 20.4401C11.6951 20.4378 11.7106 20.4351 11.7261 20.432C11.7415 20.429 11.7568 20.4255 11.7721 20.4217C11.7873 20.4178 11.8025 20.4136 11.8176 20.409C11.8326 20.4045 11.8476 20.3995 11.8624 20.3942C11.8772 20.3889 11.8919 20.3832 11.9064 20.3772C11.921 20.3711 11.9354 20.3647 11.9496 20.358C11.9638 20.3512 11.9779 20.3441 11.9917 20.3367C12.0056 20.3293 12.0193 20.3215 12.0328 20.3134C12.0463 20.3053 12.0596 20.2968 12.0727 20.2881C12.0857 20.2793 12.0986 20.2702 12.1112 20.2608C12.1239 20.2514 12.1363 20.2417 12.1485 20.2317C12.1606 20.2217 12.1725 20.2114 12.1842 20.2008C12.1959 20.1902 12.2072 20.1793 12.2184 20.1681C12.2295 20.157 12.2404 20.1456 12.2509 20.1339C12.2615 20.1222 12.2718 20.1102 12.2817 20.098C12.2917 20.0858 12.3014 20.0734 12.3108 20.0607C12.3202 20.048 12.3292 20.0351 12.338 20.022C12.3467 20.0089 12.3551 19.9955 12.3632 19.982C12.3713 19.9685 12.379 19.9547 12.3864 19.9409C12.3939 19.9269 12.401 19.9128 12.4077 19.8986C12.4144 19.8843 12.4208 19.8699 12.4268 19.8553C12.4328 19.8407 12.4385 19.826 12.4438 19.8111C12.4491 19.7963 12.454 19.7813 12.4586 19.7662C12.4632 19.7511 12.4674 19.7359 12.4712 19.7206C12.475 19.7053 12.4785 19.6899 12.4815 19.6744C12.4846 19.6589 12.4873 19.6434 12.4896 19.6278C12.4919 19.6122 12.4938 19.5965 12.4954 19.5808C12.4969 19.5651 12.4981 19.5494 12.4988 19.5336C12.4996 19.5178 12.5 19.5021 12.5 19.4863C12.5 19.4705 12.4996 19.4547 12.4988 19.439C12.4981 19.4232 12.4969 19.4075 12.4954 19.3918C12.4938 19.3761 12.4919 19.3604 12.4896 19.3448C12.4873 19.3292 12.4846 19.3136 12.4815 19.2982C12.4785 19.2827 12.475 19.2673 12.4712 19.252C12.4674 19.2367 12.4632 19.2215 12.4586 19.2064C12.454 19.1913 12.4491 19.1763 12.4438 19.1614C12.4385 19.1466 12.4328 19.1319 12.4268 19.1173C12.4208 19.1027 12.4144 19.0882 12.4077 19.074C12.401 19.0597 12.3939 19.0456 12.3864 19.0317C12.379 19.0178 12.3713 19.0041 12.3632 18.9906C12.3551 18.977 12.3467 18.9637 12.338 18.9506C12.3292 18.9375 12.3202 18.9246 12.3108 18.9119C12.3014 18.8992 12.2917 18.8867 12.2817 18.8745C12.2718 18.8623 12.2615 18.8504 12.2509 18.8387C12.2404 18.827 12.2295 18.8156 12.2184 18.8044C12.2072 18.7933 12.1959 18.7824 12.1842 18.7718C12.1725 18.7612 12.1606 18.7509 12.1485 18.7409C12.1363 18.7309 12.1239 18.7212 12.1112 18.7118C12.0986 18.7024 12.0857 18.6933 12.0727 18.6845C12.0596 18.6757 12.0463 18.6673 12.0328 18.6592C12.0193 18.6511 12.0056 18.6433 11.9917 18.6359C11.9779 18.6284 11.9638 18.6213 11.9496 18.6146C11.9354 18.6078 11.921 18.6014 11.9064 18.5954C11.8919 18.5893 11.8772 18.5837 11.8624 18.5784C11.8476 18.573 11.8326 18.5681 11.8176 18.5635C11.8025 18.5589 11.7873 18.5547 11.7721 18.5509C11.7568 18.5471 11.7415 18.5436 11.7261 18.5405C11.7106 18.5375 11.6951 18.5347 11.6795 18.5324C11.664 18.5301 11.6484 18.5282 11.6327 18.5266C11.6171 18.5251 11.6014 18.5239 11.5856 18.5232C11.5699 18.5224 11.5542 18.522 11.5385 18.522Z"   fill="#C4C4C4" >
</path>
</svg>
