<svg xmlns="http://www.w3.org/2000/svg" width="18" height="16" viewBox="0 0 18 16" fill="currentColor"><path d="M17.85.853c.172.395.196.854.072 1.377L15.4 14.577a2.038 2.038 0 0 1-.328.793l-.188.262-.023-.023a1.466 1.466 0 0 1-1.11.386 1.854 1.854 0 0 1-.746-.252l-.038-.02-.043-.035-3.372-2.59-1.367 1.378-.052.055a2.58 2.58 0 0 1-.487.42c-.218.13-.475.195-.77.195h-.737l.327-5.137 3.115-2.918-4.503 2.959L.973 8.696a1.391 1.391 0 0 1-.7-.457c-.2-.251-.29-.545-.27-.882.022-.365.163-.66.423-.885.094-.082.207-.157.34-.226a4.76 4.76 0 0 1 .322-.145l.05-.021h.002L15.908.157c.348-.161.69-.198 1.025-.111.206.054.387.15.545.29.16.14.284.312.372.516v.001zm-1.27 1.05V1.9l.002-.003v-.005c.05-.205.054-.355.012-.452a.066.066 0 0 0-.003-.007c-.028-.004-.07.007-.124.032l-.007.004-.028.011-14.79 5.932 3.244 1.07 7.83-5.144.014-.007c.185-.092.381-.14.59-.148.2-.007.39.024.57.095.19.074.346.182.469.324.138.16.219.345.24.553l.017.147-6.812 6.381-.148 2.332 1.775-1.791 4.268 3.28a.51.51 0 0 0 .17.061.098.098 0 0 0 .047-.008.133.133 0 0 0 .041-.03l.01-.013a.578.578 0 0 0 .08-.205l2.53-12.393.003-.014z" fill-rule="evenodd"/></svg>