<svg xmlns="http://www.w3.org/2000/svg" xmlns:xlink="http://www.w3.org/1999/xlink" width="20" height="20" viewBox="0 0 20 20" fill="none">
<circle cx="10" cy="10" r="10"   fill="#EEEEEE" fill-opacity="0.08">
</circle>
<path d="M10 20C15.5228 20 20 15.5228 20 10C20 4.47715 15.5228 0 10 0C4.47715 0 0 4.47715 0 10C0 15.5228 4.47715 20 10 20ZM17 5.08889L16.1289 5.08889L16.1133 15.9424L5.45778 15.9424C5.43156 15.9424 5.40535 15.9418 5.37917 15.9407C5.35297 15.9395 5.32683 15.9377 5.30073 15.9354C5.27463 15.9331 5.24861 15.9302 5.22268 15.9267C5.19674 15.9232 5.17092 15.9191 5.1452 15.9144C5.11948 15.9098 5.0939 15.9046 5.06847 15.8988C5.04303 15.893 5.01776 15.8866 4.99268 15.8797C4.96759 15.8728 4.94269 15.8653 4.918 15.8573C4.89332 15.8493 4.86886 15.8407 4.84464 15.8316C4.82041 15.8224 4.79644 15.8128 4.77274 15.8026C4.74904 15.7924 4.72562 15.7817 4.70249 15.7704C4.67937 15.7592 4.65657 15.7474 4.63408 15.7352C4.61159 15.7229 4.58944 15.7102 4.56763 15.6969C4.54582 15.6837 4.5244 15.67 4.50333 15.6558C4.48226 15.6416 4.46161 15.6269 4.44134 15.6118C4.42107 15.5967 4.40122 15.5811 4.38179 15.5651C4.36236 15.5491 4.34338 15.5327 4.32483 15.5158C4.30629 15.499 4.28822 15.4817 4.27061 15.464C4.253 15.4464 4.23588 15.4283 4.21924 15.4099C4.20261 15.3915 4.18648 15.3727 4.17086 15.3535C4.15524 15.3344 4.14015 15.3149 4.12558 15.2951C4.11101 15.2753 4.09699 15.2551 4.08351 15.2347C4.07003 15.2142 4.0571 15.1935 4.04474 15.1725C4.03238 15.1515 4.0206 15.1302 4.00939 15.1086C3.99817 15.0871 3.98755 15.0653 3.97752 15.0433C3.96748 15.0212 3.95805 14.999 3.94921 14.9766C3.94038 14.9541 3.93216 14.9315 3.92455 14.9087C3.91694 14.8859 3.90994 14.8629 3.90357 14.8398C3.8972 14.8167 3.89146 14.7934 3.88634 14.77C3.88123 14.7466 3.87674 14.7232 3.8729 14.6996C3.86905 14.676 3.86584 14.6524 3.86327 14.6286C3.8607 14.6049 3.85877 14.5811 3.85748 14.5573C3.8562 14.5335 3.85556 14.5097 3.85556 14.4859L3.85556 13.7222Q3.85556 13.6875 3.85743 13.6528C3.85868 13.6297 3.86055 13.6066 3.86305 13.5836C3.86554 13.5606 3.86866 13.5376 3.87239 13.5147C3.87613 13.4918 3.88048 13.469 3.88545 13.4463C3.89041 13.4236 3.89599 13.4011 3.90217 13.3786C3.90836 13.3562 3.91515 13.3339 3.92254 13.3117C3.92993 13.2896 3.93791 13.2676 3.94649 13.2458C3.95506 13.224 3.96422 13.2024 3.97397 13.181C3.98371 13.1597 3.99402 13.1385 4.00491 13.1176C4.01579 13.0967 4.02723 13.076 4.03923 13.0556C4.05123 13.0352 4.06378 13.0151 4.07687 12.9952C4.08995 12.9754 4.10357 12.9558 4.11771 12.9366C4.13186 12.9173 4.14651 12.8984 4.16168 12.8798C4.17684 12.8612 4.1925 12.843 4.20865 12.8251C4.2248 12.8072 4.24142 12.7897 4.25852 12.7725C4.27562 12.7554 4.29317 12.7386 4.31117 12.7223C4.32917 12.7059 4.3476 12.69 4.36646 12.6744C4.38533 12.6589 4.40461 12.6438 4.42428 12.6291C4.44395 12.6144 4.46403 12.6002 4.48446 12.5864C4.50492 12.5726 4.52573 12.5593 4.54689 12.5464C4.56805 12.5335 4.58956 12.5212 4.61139 12.5093C4.63323 12.4974 4.65538 12.486 4.67783 12.4751C4.70028 12.4642 4.72301 12.4538 4.74602 12.4438C4.76903 12.434 4.7923 12.4246 4.81583 12.4157C4.83935 12.4069 4.86309 12.3985 4.88706 12.3907C4.91103 12.3829 4.9352 12.3757 4.95956 12.369C4.98391 12.3623 5.00844 12.3561 5.03314 12.3505C5.05784 12.3448 5.08266 12.3398 5.10764 12.3353C5.13261 12.3307 5.15768 12.3268 5.18287 12.3234C5.20805 12.32 5.2333 12.3172 5.25863 12.3149C5.28397 12.3126 5.30936 12.3109 5.33479 12.3098C5.3602 12.3086 5.38565 12.3081 5.41112 12.3081L14.4644 12.3081L14.4644 4L5.47334 4C5.43286 4 5.3924 4.0009 5.35197 4.00271C5.31154 4.00451 5.27119 4.00722 5.23091 4.01083C5.19062 4.01443 5.15046 4.01894 5.11042 4.02434C5.07037 4.02974 5.03051 4.03603 4.99082 4.0432C4.95111 4.05038 4.91163 4.05844 4.87236 4.06738C4.8331 4.07633 4.79409 4.08614 4.75536 4.09682C4.71663 4.1075 4.6782 4.11904 4.64009 4.13144C4.60199 4.14383 4.56423 4.15707 4.52683 4.17116C4.48944 4.18524 4.45245 4.20015 4.41585 4.21588C4.37926 4.23161 4.34311 4.24815 4.30741 4.2655C4.27171 4.28285 4.23651 4.30098 4.20179 4.31989C4.16707 4.33881 4.13288 4.35849 4.09922 4.37894C4.06557 4.39938 4.03248 4.42056 3.99997 4.44249C3.96746 4.46441 3.93556 4.48704 3.90427 4.51038C3.87298 4.53373 3.84234 4.55776 3.81234 4.58247C3.78235 4.60718 3.75304 4.63255 3.72442 4.65857C3.6958 4.68459 3.6679 4.71123 3.64071 4.73849C3.61353 4.76576 3.5871 4.79361 3.56142 4.82206C3.53574 4.85051 3.51085 4.87951 3.48673 4.90906C3.46262 4.93862 3.43932 4.9687 3.41683 4.99929C3.39434 5.02989 3.37269 5.06097 3.35188 5.09253C3.33107 5.1241 3.31113 5.1561 3.29205 5.18856C3.27297 5.22101 3.25477 5.25387 3.23747 5.28713C3.22016 5.32041 3.20376 5.35404 3.18827 5.38803C3.17278 5.42202 3.15822 5.45635 3.14458 5.49099C3.13094 5.52563 3.11825 5.56057 3.1065 5.59578C3.09475 5.63099 3.08396 5.66645 3.07412 5.70215Q3.05937 5.75569 3.04752 5.80983C3.03963 5.84591 3.03271 5.88216 3.02677 5.91856C3.02083 5.95497 3.01588 5.99147 3.01191 6.0281C3.00794 6.06471 3.00497 6.1014 3.00298 6.13816C3.00099 6.17491 3 6.21169 3 6.24849L3 14.4788C3 14.5156 3.00099 14.5524 3.00298 14.5891C3.00497 14.6259 3.00794 14.6626 3.01191 14.6992C3.01588 14.7358 3.02083 14.7723 3.02677 14.8087C3.03271 14.8451 3.03963 14.8814 3.04752 14.9174C3.05542 14.9535 3.06429 14.9894 3.07412 15.0251C3.08396 15.0608 3.09475 15.0963 3.1065 15.1315C3.11825 15.1667 3.13094 15.2016 3.14458 15.2363C3.15822 15.2709 3.17278 15.3052 3.18827 15.3392C3.20376 15.3732 3.22016 15.4069 3.23747 15.4401C3.25477 15.4734 3.27297 15.5063 3.29205 15.5387C3.31113 15.5712 3.33107 15.6032 3.35188 15.6347C3.37269 15.6663 3.39434 15.6974 3.41683 15.728C3.43932 15.7586 3.46262 15.7886 3.48673 15.8182C3.51085 15.8478 3.53574 15.8768 3.56142 15.9052C3.5871 15.9337 3.61353 15.9615 3.64071 15.9888C3.6679 16.016 3.6958 16.0427 3.72442 16.0687C3.75304 16.0947 3.78235 16.1201 3.81234 16.1448C3.84234 16.1695 3.87298 16.1935 3.90427 16.2169C3.93556 16.2402 3.96746 16.2629 3.99997 16.2848C4.03248 16.3067 4.06557 16.3279 4.09922 16.3483C4.13288 16.3688 4.16707 16.3885 4.20179 16.4074C4.23651 16.4263 4.27171 16.4445 4.30741 16.4618C4.34311 16.4791 4.37926 16.4956 4.41585 16.5114C4.45245 16.5272 4.48944 16.5421 4.52683 16.5561C4.56423 16.5702 4.60199 16.5835 4.64009 16.5958C4.6782 16.6082 4.71663 16.6198 4.75536 16.6305C4.79409 16.6411 4.8331 16.651 4.87236 16.6599C4.91163 16.6689 4.95111 16.6769 4.99082 16.684C5.03051 16.6912 5.07037 16.6976 5.11042 16.7029C5.15046 16.7083 5.19062 16.7129 5.23091 16.7165C5.27119 16.7201 5.31154 16.7227 5.35197 16.7245C5.3924 16.7264 5.43286 16.7273 5.47334 16.7273L17 16.7273L17 5.08889ZM5.33334 13.6657L5.33334 14.4576L14.6667 14.4576L14.6667 13.6657L5.33334 13.6657Z" fill-rule="evenodd"  fill="#999999" >
</path>
</svg>
