<svg xmlns="http://www.w3.org/2000/svg" xmlns:xlink="http://www.w3.org/1999/xlink" width="20" height="20" viewBox="0 0 20 20" fill="none">
<circle cx="10" cy="10" r="10"   fill="#EEEEEE" fill-opacity="0.08">
</circle>
<path d="M10 20C15.5228 20 20 15.5228 20 10C20 4.47715 15.5228 0 10 0C4.47715 0 0 4.47715 0 10C0 15.5228 4.47715 20 10 20ZM14.8665 4.97952C14.8677 4.98135 14.8688 4.98328 14.8698 4.98533C16.4509 7.52776 17.2317 10.3957 16.9397 13.6974C16.9396 13.6991 16.9393 13.7008 16.939 13.7025C16.9386 13.7042 16.9383 13.7059 16.9378 13.7076C16.9373 13.7092 16.9368 13.7109 16.9362 13.7124C16.9356 13.714 16.9349 13.7156 16.9341 13.7171C16.9333 13.7186 16.9324 13.7201 16.9315 13.7215C16.9305 13.7229 16.9296 13.7243 16.9285 13.7256C16.9274 13.7269 16.9263 13.7281 16.9252 13.7293C16.924 13.7304 16.9228 13.7315 16.9215 13.7326C16.8555 13.786 16.789 13.8387 16.7219 13.8906C16.6549 13.9425 16.5874 13.9936 16.5194 14.0439C16.4515 14.0942 16.383 14.1438 16.3141 14.1925C16.2452 14.2412 16.1756 14.2892 16.1058 14.3363C16.0359 14.3834 15.9655 14.4297 15.8947 14.4752C15.8238 14.5207 15.7527 14.5653 15.681 14.6091C15.6094 14.6529 15.5373 14.6959 15.4648 14.7381C15.3923 14.7802 15.3194 14.8215 15.2461 14.8619C15.1728 14.9024 15.0991 14.942 15.025 14.9807C14.951 15.0194 14.8765 15.0573 14.8017 15.0943C14.7269 15.1313 14.6517 15.1674 14.5762 15.2027C14.5007 15.2379 14.4248 15.2723 14.3487 15.3058C14.2725 15.3392 14.196 15.3718 14.1192 15.4035C14.0423 15.4352 13.9652 15.466 13.8878 15.4959C13.8104 15.5258 13.7327 15.5548 13.6547 15.5829C13.5767 15.611 13.4985 15.6382 13.42 15.6645C13.4189 15.6649 13.4178 15.6652 13.4166 15.6655C13.4155 15.6657 13.4144 15.666 13.4132 15.6661L13.4098 15.6665L13.4063 15.6666L13.4029 15.6664L13.3994 15.6659L13.3961 15.6651C13.3949 15.6648 13.3938 15.6645 13.3927 15.6641C13.3916 15.6636 13.3906 15.6632 13.3895 15.6627C13.3884 15.6622 13.3874 15.6616 13.3864 15.6611C13.3854 15.6605 13.3844 15.6598 13.3834 15.6592C13.3824 15.6585 13.3814 15.6578 13.3805 15.657C13.3796 15.6563 13.3787 15.6555 13.3778 15.6547C13.3769 15.6538 13.3761 15.653 13.3753 15.6521C13.3745 15.6512 13.3737 15.6502 13.373 15.6493C13.3722 15.6483 13.3715 15.6473 13.3709 15.6463C13.2377 15.4442 13.1115 15.2371 12.9922 15.025C12.873 14.8128 12.761 14.5962 12.6562 14.375L12.6552 14.3727L12.6543 14.3704L12.6535 14.3679L12.6528 14.3655L12.6523 14.363L12.6519 14.3605L12.6515 14.3579L12.6513 14.3554L12.6513 14.3528L12.6513 14.3502L12.6515 14.3477L12.6518 14.3451L12.6522 14.3426L12.6528 14.3401L12.6535 14.3376L12.6542 14.3352L12.6551 14.3328L12.6561 14.3305L12.6573 14.3283L12.6585 14.3261C12.6589 14.3254 12.6594 14.3247 12.6598 14.324C12.6603 14.3233 12.6608 14.3226 12.6613 14.3219C12.6617 14.3213 12.6623 14.3206 12.6628 14.32C12.6633 14.3193 12.6638 14.3187 12.6644 14.3181C12.6649 14.3175 12.6655 14.3169 12.6661 14.3164C12.6667 14.3158 12.6673 14.3152 12.6679 14.3147C12.6685 14.3142 12.6691 14.3136 12.6698 14.3131C12.6704 14.3126 12.671 14.3121 12.6717 14.3117L12.6737 14.3103L12.6758 14.3091L12.6779 14.308L12.6801 14.307C12.8691 14.2293 13.0549 14.143 13.2373 14.048C13.4198 13.9531 13.5982 13.8499 13.7727 13.7386C13.7735 13.738 13.7742 13.7375 13.775 13.7369C13.7757 13.7364 13.7765 13.7358 13.7772 13.7352C13.7779 13.7345 13.7786 13.7339 13.7793 13.7332C13.78 13.7326 13.7807 13.7319 13.7813 13.7312C13.782 13.7305 13.7826 13.7298 13.7832 13.729C13.7838 13.7283 13.7844 13.7275 13.785 13.7267C13.7855 13.7259 13.7861 13.7251 13.7866 13.7243C13.7871 13.7234 13.7876 13.7226 13.7881 13.7217C13.7886 13.7209 13.789 13.72 13.7894 13.7191C13.7899 13.7182 13.7903 13.7173 13.7906 13.7164C13.791 13.7155 13.7914 13.7146 13.7917 13.7136L13.7926 13.7108L13.7933 13.7079L13.7938 13.7049L13.7942 13.702L13.7945 13.699L13.7945 13.696L13.7944 13.693L13.7941 13.69L13.7937 13.687L13.7931 13.6841L13.7923 13.6812L13.7914 13.6784C13.791 13.6774 13.7907 13.6765 13.7903 13.6756C13.7899 13.6747 13.7895 13.6738 13.789 13.6729C13.7886 13.672 13.7881 13.6712 13.7877 13.6703Q13.7869 13.6691 13.7861 13.6678C13.7856 13.667 13.785 13.6662 13.7844 13.6655C13.7839 13.6647 13.7833 13.6639 13.7826 13.6632C13.782 13.6624 13.7814 13.6617 13.7807 13.661C13.7801 13.6603 13.7794 13.6597 13.7787 13.659C13.778 13.6584 13.7773 13.6577 13.7765 13.6571C13.7026 13.597 13.6302 13.5348 13.5591 13.4707C13.5575 13.4693 13.5559 13.468 13.5541 13.4669C13.5524 13.4657 13.5506 13.4647 13.5487 13.4638C13.5468 13.463 13.5449 13.4622 13.543 13.4617C13.541 13.4611 13.539 13.4607 13.537 13.4604C13.535 13.4601 13.5329 13.46 13.5309 13.4601C13.5289 13.4601 13.5269 13.4603 13.5249 13.4607C13.5229 13.461 13.5209 13.4615 13.519 13.4622C13.517 13.4629 13.5151 13.4637 13.5133 13.4646C11.2492 14.6083 8.76873 14.6083 6.47756 13.4646C6.47572 13.4637 6.47384 13.463 6.47191 13.4624C6.46999 13.4618 6.46803 13.4613 6.46605 13.461C6.46406 13.4606 6.46206 13.4605 6.46006 13.4605L6.45407 13.4609C6.45208 13.4612 6.45012 13.4616 6.44819 13.4622C6.44626 13.4628 6.44437 13.4636 6.44253 13.4644C6.44069 13.4653 6.43891 13.4663 6.43721 13.4675C6.4355 13.4686 6.43387 13.4699 6.43232 13.4713C6.36133 13.5351 6.28903 13.597 6.21544 13.6571C6.2147 13.6578 6.21399 13.6584 6.21329 13.659C6.2126 13.6597 6.21193 13.6604 6.21127 13.6611C6.2106 13.6618 6.20997 13.6625 6.20937 13.6632C6.20875 13.664 6.20815 13.6647 6.20758 13.6655C6.20701 13.6663 6.20645 13.6671 6.20593 13.6679C6.20539 13.6687 6.20489 13.6696 6.20441 13.6704C6.20393 13.6713 6.20346 13.6721 6.20303 13.673C6.2026 13.6739 6.20219 13.6748 6.20181 13.6757C6.20143 13.6766 6.20107 13.6776 6.20074 13.6785L6.19982 13.6813L6.19907 13.6842L6.19849 13.6872L6.19806 13.6901L6.19779 13.6931L6.19771 13.6961L6.19778 13.6991L6.19803 13.7021L6.19845 13.7051L6.19902 13.708L6.19977 13.7109L6.20066 13.7138C6.201 13.7147 6.20135 13.7156 6.20174 13.7165C6.2021 13.7175 6.20251 13.7184 6.20295 13.7192C6.20338 13.7201 6.20383 13.721 6.20431 13.7219C6.20478 13.7227 6.20528 13.7236 6.20582 13.7244C6.20634 13.7252 6.20689 13.726 6.20746 13.7268C6.20803 13.7276 6.20862 13.7283 6.20924 13.7291C6.20984 13.7298 6.21047 13.7305 6.21114 13.7312C6.21178 13.732 6.21246 13.7326 6.21315 13.7333C6.21384 13.734 6.21454 13.7346 6.21528 13.7352C6.21601 13.7358 6.21676 13.7364 6.21752 13.737C6.21827 13.7375 6.21904 13.738 6.21984 13.7386C6.3947 13.849 6.57327 13.9518 6.75558 14.0468C6.93788 14.1418 7.12333 14.2287 7.31194 14.3076L7.31412 14.3086L7.31624 14.3096L7.31831 14.3108L7.32032 14.3121L7.32226 14.3136C7.32289 14.314 7.32351 14.3146 7.32413 14.3151C7.32474 14.3156 7.32533 14.3162 7.32593 14.3167C7.32651 14.3173 7.32708 14.3179 7.32764 14.3185C7.32819 14.3191 7.32874 14.3197 7.32927 14.3203C7.3298 14.3209 7.33031 14.3216 7.33081 14.3222C7.33131 14.3229 7.33179 14.3235 7.33225 14.3242C7.33271 14.3249 7.33317 14.3256 7.3336 14.3263L7.33485 14.3285L7.33598 14.3307L7.337 14.333L7.33792 14.3354L7.33871 14.3378L7.33939 14.3402L7.33995 14.3427L7.3404 14.3452L7.34073 14.3477L7.34092 14.3503L7.34099 14.3529L7.34094 14.3554L7.34077 14.358L7.34048 14.3605L7.34006 14.363L7.33952 14.3655L7.33887 14.368L7.3381 14.3704L7.3372 14.3727L7.3362 14.375C7.28471 14.4862 7.23117 14.5961 7.17555 14.7048C7.11992 14.8136 7.06226 14.921 7.00259 15.0271C6.94292 15.1333 6.88127 15.238 6.81765 15.3414C6.75403 15.4447 6.68849 15.5466 6.62103 15.647C6.62034 15.648 6.61962 15.6489 6.61886 15.6499C6.61809 15.6508 6.61731 15.6517 6.61649 15.6526C6.61566 15.6535 6.61482 15.6543 6.61394 15.6551C6.61306 15.6559 6.61215 15.6567 6.61122 15.6574C6.61028 15.6582 6.60933 15.6588 6.60836 15.6595C6.60737 15.6601 6.60637 15.6608 6.60534 15.6613C6.60432 15.6619 6.60327 15.6624 6.60222 15.6629C6.60115 15.6634 6.60008 15.6638 6.599 15.6642C6.5979 15.6646 6.59681 15.6649 6.59569 15.6652C6.59457 15.6655 6.59345 15.6658 6.59233 15.666L6.58891 15.6665L6.58549 15.6667L6.58205 15.6666L6.57863 15.6662L6.57525 15.6655C6.57412 15.6653 6.57301 15.6649 6.57191 15.6646C6.49353 15.6382 6.41543 15.6109 6.33759 15.5828C6.25975 15.5546 6.18219 15.5255 6.10491 15.4955C6.02763 15.4656 5.95064 15.4347 5.87397 15.4029C5.79728 15.3712 5.72091 15.3386 5.64486 15.305C5.56882 15.2715 5.4931 15.2371 5.41772 15.2018C5.34234 15.1666 5.2673 15.1304 5.19263 15.0934C5.11793 15.0564 5.04362 15.0185 4.96967 14.9797C4.89572 14.941 4.82215 14.9014 4.74897 14.861C4.67578 14.8205 4.603 14.7792 4.53062 14.7371C4.45824 14.695 4.38628 14.652 4.31473 14.6082C4.24317 14.5644 4.17205 14.5198 4.10137 14.4743C4.03068 14.4289 3.96044 14.3826 3.89065 14.3355C3.82086 14.2885 3.75153 14.2406 3.68267 14.1919C3.61381 14.1432 3.54543 14.0938 3.47752 14.0435C3.40961 13.9932 3.3422 13.9422 3.27529 13.8904C3.20837 13.8385 3.14196 13.7859 3.07607 13.7326C3.07353 13.7304 3.07121 13.728 3.06912 13.7253C3.06703 13.7226 3.0652 13.7198 3.06363 13.7167C3.06207 13.7136 3.0608 13.7104 3.05983 13.707C3.05886 13.7037 3.0582 13.7003 3.05785 13.6968C2.81395 10.8409 3.31114 7.94927 5.12613 4.98473C5.12722 4.98278 5.12846 4.98093 5.12983 4.97918Q5.13186 4.97658 5.13426 4.97434C5.13585 4.97285 5.13753 4.97149 5.13932 4.97028C5.1411 4.96907 5.14296 4.96802 5.14489 4.96713C5.25817 4.91022 5.37229 4.85533 5.48722 4.80247C5.60215 4.74961 5.71783 4.69881 5.83427 4.65006C5.9507 4.60131 6.06783 4.55464 6.18566 4.51006C6.30347 4.46546 6.42193 4.42298 6.54102 4.3826C6.66009 4.34222 6.77975 4.30396 6.89998 4.26783C7.02019 4.2317 7.1409 4.19772 7.26214 4.16587C7.38337 4.13403 7.50504 4.10435 7.62716 4.07683C7.74925 4.04931 7.87174 4.02397 7.99461 4.0008L7.99795 4.00036L8.00131 4.0002L8.00467 4.00031L8.00801 4.0007L8.01132 4.00136C8.01242 4.00162 8.0135 4.00193 8.01459 4.00228C8.01566 4.00264 8.01672 4.00303 8.01776 4.00347C8.01881 4.00391 8.01984 4.0044 8.02086 4.00492C8.02186 4.00545 8.02286 4.00601 8.02384 4.00662C8.02481 4.00723 8.02576 4.00787 8.0267 4.00855C8.02763 4.00924 8.02854 4.00996 8.02942 4.01072C8.0303 4.01148 8.03115 4.01227 8.03198 4.0131C8.03281 4.01393 8.03361 4.01479 8.03438 4.01568Q8.03553 4.01702 8.0366 4.01845C8.0373 4.0194 8.03797 4.02039 8.03861 4.02139C8.03924 4.0224 8.03985 4.02344 8.04042 4.02449C8.17394 4.28286 8.29406 4.54849 8.40078 4.82137C8.53313 4.79939 8.66584 4.78015 8.79886 4.76364C8.93189 4.74713 9.06516 4.73336 9.19866 4.72235C9.33216 4.71133 9.4658 4.70306 9.59959 4.69754C9.73338 4.69203 9.86721 4.68928 10.0011 4.68928C10.135 4.68928 10.2688 4.69203 10.4026 4.69754C10.5364 4.70306 10.67 4.71133 10.8035 4.72235C10.937 4.73336 11.0703 4.74713 11.2033 4.76364C11.3363 4.78015 11.469 4.79939 11.6014 4.82137C11.7074 4.54921 11.8256 4.28359 11.9562 4.02449C11.9567 4.02341 11.9573 4.02236 11.9579 4.02133C11.9585 4.0203 11.9592 4.01929 11.9599 4.01832C11.9606 4.01734 11.9613 4.0164 11.962 4.01548C11.9628 4.01457 11.9636 4.01369 11.9644 4.01285C11.9652 4.012 11.9661 4.01119 11.967 4.01042C11.9679 4.00965 11.9688 4.00891 11.9697 4.00822C11.9706 4.00752 11.9716 4.00687 11.9726 4.00626C11.9735 4.00564 11.9745 4.00507 11.9756 4.00454Q11.9771 4.00375 11.9787 4.00309C11.9797 4.00266 11.9808 4.00226 11.9819 4.00191C11.9829 4.00157 11.984 4.00127 11.9851 4.00101L11.9885 4.00039L11.9918 4.00006L11.9952 4.00002L11.9986 4.00026L12.002 4.0008Q12.1862 4.03562 12.3694 4.07696C12.4915 4.10451 12.6131 4.13422 12.7344 4.16609C12.8556 4.19796 12.9763 4.23196 13.0965 4.2681C13.2167 4.30424 13.3364 4.3425 13.4554 4.38288C13.5745 4.42326 13.693 4.46574 13.8108 4.51032C13.9286 4.55489 14.0457 4.60154 14.1622 4.65025C14.2786 4.69898 14.3943 4.74975 14.5092 4.80257C14.6242 4.85539 14.7383 4.91023 14.8516 4.9671C14.8536 4.96798 14.8554 4.96903 14.8572 4.97027C14.859 4.9715 14.8607 4.97289 14.8622 4.97445C14.8638 4.976 14.8652 4.97769 14.8665 4.97952ZM6.42018 10.4152C6.42018 11.2655 6.98856 11.9578 7.67837 11.9578C8.37916 11.9578 8.93654 11.2655 8.93654 10.4151C8.94757 9.57086 8.38468 8.87242 7.67837 8.87242C6.97754 8.87242 6.42018 9.56484 6.42018 10.4152ZM11.0721 10.4152C11.0721 11.2655 11.6405 11.9578 12.3303 11.9578C13.0366 11.9578 13.5885 11.2655 13.5885 10.4151C13.5995 9.57086 13.0366 8.87242 12.3303 8.87242C11.6295 8.87242 11.0721 9.56484 11.0721 10.4152Z" fill-rule="evenodd"  fill="#999999" >
</path>
</svg>
