<svg xmlns="http://www.w3.org/2000/svg" xmlns:xlink="http://www.w3.org/1999/xlink" width="20" height="20" viewBox="0 0 20 20" fill="none">
<circle cx="10" cy="10" r="10"   fill="#EEEEEE" fill-opacity="0.08">
</circle>
<path d="M10 20C15.5228 20 20 15.5228 20 10C20 4.47715 15.5228 0 10 0C4.47715 0 0 4.47715 0 10C0 15.5228 4.47715 20 10 20ZM15.9393 5.66826C16.0358 5.27679 16.0173 4.93342 15.8838 4.63815L15.8837 4.63796L15.8836 4.63765C15.8149 4.48505 15.7182 4.35617 15.5937 4.25101C15.4714 4.14676 15.3302 4.07451 15.17 4.03427C14.9093 3.96911 14.6436 3.99687 14.3729 4.11753L2.88687 8.54782L2.88546 8.54782L2.84669 8.56346L2.8459 8.56378C2.73648 8.60792 2.65314 8.64419 2.59589 8.67262C2.49242 8.72399 2.40422 8.78012 2.33128 8.841C2.12934 9.00956 2.01965 9.23039 2.00221 9.5035C1.98629 9.75526 2.05638 9.97522 2.21248 10.1634C2.34656 10.3239 2.52807 10.4378 2.757 10.505L5.94945 11.5176L9.45171 9.30472L7.0294 11.4872L6.77494 15.3296L7.34727 15.3296C7.57765 15.3296 7.77754 15.281 7.94696 15.1838C8.04734 15.1262 8.17353 15.0215 8.32541 14.8696L8.36599 14.829L9.42957 13.7976L12.052 15.7357L12.0857 15.7612L12.1146 15.7762C12.3123 15.8849 12.5059 15.9477 12.6954 15.9647C12.8948 15.9809 13.085 15.9481 13.2657 15.8661C13.3741 15.8171 13.4718 15.7539 13.5586 15.6764L13.5763 15.6934L13.7225 15.4977C13.8433 15.3361 13.9285 15.1384 13.978 14.9044L15.9393 5.66826ZM14.8961 5.4222L14.8959 5.42332L14.8935 5.43417L12.9251 14.7043L12.9251 14.7047C12.9094 14.7719 12.8887 14.8229 12.863 14.8576L12.8558 14.8673C12.8471 14.8765 12.8364 14.884 12.8237 14.8898C12.8128 14.8947 12.8006 14.8968 12.7872 14.8961C12.7513 14.892 12.7071 14.8767 12.6548 14.85L9.33546 12.3968L7.95439 13.7365L8.06945 11.9922L13.3676 7.21898L13.3555 7.10899C13.3383 6.95298 13.2758 6.8151 13.168 6.69535C13.0723 6.58899 12.9507 6.5081 12.8031 6.45268C12.6629 6.39997 12.5151 6.37627 12.3598 6.38157C12.1974 6.3871 12.0447 6.42399 11.9014 6.49221L11.8899 6.49773L5.80032 10.3451L3.2764 9.54493L14.7801 5.10782L14.8022 5.09936L14.8077 5.09683C14.8501 5.07767 14.8823 5.06965 14.9043 5.07279C14.9051 5.07417 14.9059 5.07589 14.9067 5.07795C14.9391 5.15033 14.9361 5.26291 14.8977 5.41569L14.8967 5.41949L14.8961 5.4222Z" fill-rule="evenodd"  fill="#999999" >
</path>
</svg>
