<svg xmlns="http://www.w3.org/2000/svg" xmlns:xlink="http://www.w3.org/1999/xlink" width="20" height="20" viewBox="0 0 20 20" fill="none">
<circle cx="10" cy="10" r="10"   fill="#EEEEEE" fill-opacity="0.08">
</circle>
<path d="M10 20C15.5228 20 20 15.5228 20 10C20 4.47715 15.5228 0 10 0C4.47715 0 0 4.47715 0 10C0 15.5228 4.47715 20 10 20ZM15.4004 4.75L13.5218 4.75L10.426 8.10475L7.75026 4.75L3.874 4.75L8.50538 10.4926L4.1155 15.25L5.99588 15.25L9.38301 11.5794L12.344 15.25L16.124 15.25L11.2966 9.19763L15.4004 4.75ZM13.9033 14.1842L12.862 14.1842L6.06764 5.75974L7.18412 5.75974L13.9033 14.1842Z" fill-rule="evenodd"  fill="#999999" >
</path>
</svg>
